<svg id="Layer_1" enable-background="new 0 0 511.963 511.963" height="512" viewBox="0 0 511.963 511.963" width="512" xmlns="http://www.w3.org/2000/svg"><g><path d="m94.813 225.184-4.779 4.779-52.426-51.913c-23.431-23.431-23.431-61.421 0-84.853l55.66-55.66c23.431-23.431 61.421-23.431 84.853 0l24.653 24.897c-20.409-6.039-43.398-1.005-59.506 15.103l-55.66 55.66c-23.431 23.431-23.431 61.421 0 84.853zm31.849 75.245-56.316 56.331c-19.702 19.702-33.129 44.795-38.59 72.117l-11.721 63.047 63.047-11.721c22.232-4.444 42.988-14.164 60.565-28.246l-57.613 13.967 16.409-80.421c5.461-27.322 18.889-52.416 38.591-72.117z" fill="#cee1f2"/><path d="m20.034 511.963c-5.255 0-10.356-2.073-14.142-5.858-4.661-4.66-6.726-11.318-5.521-17.798 0 0 11.755-63.224 11.772-63.312 6.256-31.298 21.492-59.771 44.061-82.339l247.741-245.889c7.84-7.781 20.503-7.733 28.284.106 7.781 7.84 7.733 20.503-.106 28.284l-247.688 245.836c-16.881 16.881-28.323 38.236-33.042 61.712l-6.371 34.269 34.266-6.371c23.478-4.718 44.833-16.16 61.768-33.095l246.869-245.721c7.829-7.792 20.492-7.762 28.284.066 7.792 7.829 7.763 20.492-.066 28.284l-246.835 245.688c-22.537 22.537-51.009 37.772-82.307 44.028-.088.018-63.312 11.772-63.312 11.772-1.216.227-2.44.338-3.655.338zm84.212-267.928c7.772-7.849 7.71-20.512-.139-28.284l-52.357-51.844c-15.596-15.596-15.596-40.973 0-56.569l55.66-55.66c15.597-15.596 40.973-15.596 56.5-.07l51.913 52.426c19.421 18.113 46.336-8.568 28.423-28.145l-51.982-52.496c-31.193-31.193-81.945-31.192-113.137 0l-55.66 55.66c-31.193 31.193-31.193 81.947.069 113.208l52.426 51.913c3.899 3.861 8.986 5.789 14.072 5.789 5.151-.001 10.301-1.978 14.212-5.928zm328.62 244.42 55.661-55.661c31.191-31.192 31.191-81.945.069-113.068l-49.351-49.837c-7.772-7.849-20.436-7.91-28.284-.139-7.849 7.772-7.911 20.436-.139 28.284l49.42 49.906c15.596 15.596 15.596 40.973 0 56.569l-55.661 55.661c-15.596 15.596-40.972 15.597-56.638-.069l-49.837-49.351c-19.6-17.921-46.25 9.021-28.146 28.423l49.768 49.281c15.596 15.596 36.083 23.394 56.568 23.394 20.488.001 40.974-7.797 56.57-23.393z" fill="#0023c4"/><path d="m459.029 158.963c-17.199.112-26.543-20.875-14.667-33.592 0 0 15.775-17.021 15.956-17.201 15.517-14.89 15.518-41.679 0-56.568-14.888-15.517-41.68-15.518-56.568 0l-15.605 15.536c-7.829 7.793-20.491 7.764-28.285-.064-7.792-7.828-7.764-20.491.064-28.284l15.574-15.503c29.746-30.997 83.353-30.993 113.104.033 30.922 29.669 31.054 83.025.289 112.845l-15.186 16.392c-3.94 4.252-9.301 6.406-14.676 6.406zm-304.853 5.142 23-23c18.017-19.511-8.795-46.294-28.284-28.284l-23 23c-12.614 12.542-3.411 34.249 14.142 34.142 5.119 0 10.237-1.953 14.142-5.858zm226 224 22-22c18.017-19.511-8.795-46.294-28.284-28.284l-22 22c-12.614 12.542-3.411 34.249 14.142 34.142 5.119 0 10.237-1.953 14.142-5.858z" fill="#ff5cf4"/></g></svg>