<svg id="Layer_1" enable-background="new 0 0 512 512" height="512" viewBox="0 0 512 512" width="512" xmlns="http://www.w3.org/2000/svg"><g><path d="m128.769 477.979c-29.201-17.434-48.769-49.393-48.769-85.938v-272.082c0-35.878 18.86-67.335 47.18-84.968.159-5.002.427-10 .849-14.991h-9.029c-55.229 0-100 44.771-100 100v272c0 55.228 44.771 100 100 100h10.229c-.191-4.672-.337-9.346-.46-14.021z" fill="#cee1f2"/><path d="m120 512c-66.168 0-120-53.832-120-120v-272c0-66.168 53.832-120 120-120 11.046 0 20 8.954 20 20s-8.954 20-20 20c-44.112 0-80 35.888-80 80v272c0 44.112 35.888 80 80 80 26.522 1.048 26.529 38.949 0 40zm392-120v-272c0-66.168-53.832-120-120-120-11.046 0-20 8.954-20 20s8.954 20 20 20c44.112 0 80 35.888 80 80v272c0 44.112-35.888 80-80 80-26.522 1.048-26.529 38.949 0 40 66.168 0 120-53.832 120-120z" fill="#0023c4"/><path d="m330 273h-150c-26.536-1.056-26.516-38.953 0-40h150c26.536 1.056 26.516 38.953 0 40zm36.209 76.075 52.358-52.858c23.282-23.469 23.22-61.593-.137-84.983l-52.276-52.364c-7.803-7.817-20.467-7.828-28.284-.023-7.817 7.804-7.828 20.467-.023 28.284l52.278 52.366c7.847 7.857 7.868 20.665.036 28.56l-52.369 52.869c-7.773 7.848-7.713 20.511.134 28.284 3.899 3.862 8.987 5.79 14.074 5.79 5.15 0 10.298-1.977 14.209-5.925zm-188.134.134c7.848-7.773 7.908-20.436.134-28.284l-52.379-52.879c-7.822-7.884-7.801-20.692.047-28.551l52.276-52.364c18.001-19.526-8.832-46.285-28.308-28.261l-52.275 52.362c-23.358 23.392-23.42 61.516-.149 84.974l52.369 52.869c3.912 3.948 9.06 5.925 14.21 5.925 5.086 0 10.176-1.929 14.075-5.791z" fill="#ff5cf4"/></g></svg>