<svg id="Layer_1" enable-background="new 0 0 512 512" height="512" viewBox="0 0 512 512" width="512" xmlns="http://www.w3.org/2000/svg"><g><path d="m80 392.041v-272.082c0-55.206 44.644-99.959 99.716-99.959h-60.716c-55.229 0-100 44.771-100 100v272c0 55.228 44.771 100 100 100h60.716c-55.072 0-99.716-44.753-99.716-99.959z" fill="#cee1f2"/><path d="m256 316c-33.084 0-60-26.916-60-60 3.296-79.598 116.716-79.575 120 0 0 33.084-26.916 60-60 60zm0-80c-11.028 0-20 8.972-20 20 1.099 26.533 38.905 26.525 40 0 0-11.028-8.972-20-20-20zm256 156v-61c-1.056-26.536-38.953-26.516-40 0v61c0 44.112-35.888 80-80 80h-272c-44.112 0-80-35.888-80-80v-272c0-44.112 35.888-80 80-80h63c26.536-1.056 26.516-38.953 0-40h-63c-66.168 0-120 53.832-120 120v272c0 66.168 53.832 120 120 120h272c66.168 0 120-53.832 120-120z" fill="#0023c4"/><path d="m422 65c13.807 0 25 11.193 25 25 0 13.807-11.193 25-25 25s-25-11.193-25-25c0-13.807 11.193-25 25-25zm26 99c0 13.807 11.193 25 25 25s25-11.193 25-25c0-13.807-11.193-25-25-25s-25 11.193-25 25zm14 82c0 13.807 11.193 25 25 25s25-11.193 25-25c0-13.807-11.193-25-25-25s-25 11.193-25 25zm-136-207c0 13.807 11.193 25 25 25s25-11.193 25-25c0-13.807-11.193-25-25-25s-25 11.193-25 25zm-83-14c0 13.807 11.193 25 25 25s25-11.193 25-25c0-13.807-11.193-25-25-25s-25 11.193-25 25z" fill="#ff5cf3"/></g></svg>