<svg id="Layer_1" enable-background="new 0 0 512 512" height="512" viewBox="0 0 512 512" width="512" xmlns="http://www.w3.org/2000/svg"><g><path d="m445.988 290c-11.046 0-20-8.954-20-20v-150c0-44.112-35.888-80-80-80h-184c-44.112 0-80 35.888-80 80v150c-1.056 26.536-38.953 26.516-40 0v-150c0-66.168 53.832-120 120-120h184c66.168 0 120 53.832 120 120v150c0 11.046-8.954 20-20 20zm-61-106c0-11.046-8.954-20-20-20h-34c-16.542 0-30-13.458-30-30v-34c-1.056-26.536-38.953-26.516-40 0v34c0 38.598 31.402 70 70 70h34c11.046 0 20-8.954 20-20z" fill="#0023c4"/><path d="m212.988 512c-11.046 0-20-8.954-20-20v-99.82c0-34.286 27.894-62.18 62.18-62.18 85.001 3.604 84.423 124.587-.359 128h-21.82v34c-.001 11.046-8.955 20-20.001 20zm20-94h21.82c31.749-1.234 32.277-46.601.359-48-12.23 0-22.18 9.95-22.18 22.18v25.82zm222.613 78.148c38.164-36.57 9.153-95.361-44.087-95.148-13.995 0-24.549-6.664-24.549-15.5 0-8.547 7.218-15.5 16.09-15.5 7.286 0 19.337.901 39.794 8.691 10.321 3.93 21.877-1.251 25.808-11.574 3.931-10.322-1.251-21.877-11.574-25.808-20.261-7.715-37.429-11.309-54.028-11.309-30.928 0-56.09 24.897-56.09 55.5 0 31.64 27.75 55.5 64.549 55.5 11.64 0 21.473 7.098 21.473 15.5 0 8.257-8.058 15.5-17.244 15.5-7.914 0-25.983-1.819-43.502-8.638-10.292-4.006-21.886 1.09-25.892 11.384-4.006 10.293 1.09 21.886 11.384 25.892 21.548 8.386 44.717 11.362 58.011 11.362 14.869 0 29.024-5.629 39.857-15.852zm-354.433 15.852c-34.286 0-62.18-27.894-62.18-62.18v-60.82c0-32.533 26.467-59 59-59h8c78.291 3.25 78.23 114.779 0 118h-27v1.82c0 12.23 9.95 22.18 22.18 22.18 12.084 0 27.492-5.88 32.409-8.146 10.016-4.613 21.898-.26 26.536 9.745 4.637 10.006.321 21.867-9.674 26.527-2.607 1.216-26.136 11.874-49.271 11.874zm-22.18-104h27c25.212-1.047 25.193-36.963 0-38h-8c-10.477 0-19 8.523-19 19z" fill="#ff5cf4"/></g></svg>