<svg id="Layer_1" enable-background="new 0 0 512.041 512.041" height="512" viewBox="0 0 512.041 512.041" width="512" xmlns="http://www.w3.org/2000/svg"><g><path d="m127.066 330.018c.94-4.493 1.859-8.989 2.749-13.49-29.786-17.318-49.815-49.573-49.815-86.51v-110c0-35.559 18.563-66.78 46.524-84.51-.091-5.163-.166-10.326-.232-15.49h-6.292c-55.229 0-100 44.771-100 100v110c0 55.228 44.771 100 100 100z" fill="#cee1f2"/><path d="m216 40.018h-16c-26.536-1.056-26.516-38.953 0-40h16c26.536 1.056 26.516 38.953 0 40zm20 290c0-11.046-8.954-20-20-20h-16c-26.536 1.056-26.516 38.953 0 40h16c11.046 0 20-8.954 20-20zm-96 0c0-11.046-8.954-20-20-20-44.112 0-80-35.888-80-80v-110c0-44.112 35.888-80 80-80 11.046 0 20-8.954 20-20s-8.954-20-20-20c-66.168 0-120 53.832-120 120v110c0 66.168 53.832 120 120 120 11.046 0 20-8.954 20-20zm196.079-77.795 38.738-38.394c22.76-21.638 22.758-60.66 0-82.297-.041-.042-.084-.083-.126-.124l-38.739-37.72c-7.913-7.706-20.575-7.537-28.281.376-7.706 7.914-7.537 20.576.377 28.282l38.662 37.646c7.026 6.738 7.004 18.714-.05 25.426l-38.738 38.394c-12.701 12.518-3.517 34.313 14.079 34.206 5.088-.001 10.179-1.93 14.078-5.795zm-27.079-81.205c0-11.046-8.954-20-20-20h-149c-26.536 1.056-26.516 38.953 0 40h149c11.046 0 20-8.954 20-20zm-173.214 320.785c7.177-12.668 6.993-27.688-.491-40.176 0 0 0 0-.001 0l-30.11-50.238c-14.845-25.683-53.528-25.677-68.367 0l-30.112 50.238c-16.139 25.922 3.657 60.906 34.186 60.391h60.219c14.541 0 27.505-7.557 34.676-20.215zm-64.784-69.638 29.88 49.853-59.762-.004z" fill="#0023c4"/><path d="m312 40.018h-16c-11.046 0-20-8.954-20-20s8.954-20 20-20h16c11.046 0 20 8.954 20 20s-8.954 20-20 20zm20 290c0-11.046-8.954-20-20-20h-16c-11.046 0-20 8.954-20 20s8.954 20 20 20h16c11.046 0 20-8.954 20-20zm174.786 161.785c7.177-12.668 6.993-27.688-.491-40.176 0 0 0 0-.001 0l-30.11-50.238c-7.27-12.129-20.05-19.371-34.186-19.37-14.135 0-26.913 7.242-34.182 19.371l-30.111 50.238c-7.484 12.489-7.668 27.508-.491 40.176 7.171 12.658 20.135 20.215 34.677 20.215h60.219c14.541-.001 27.505-7.558 34.676-20.216zm-64.784-69.638 29.88 49.853-59.762-.004zm69.998-192.147v-110c0-66.168-53.832-120-120-120-11.046 0-20 8.954-20 20s8.954 20 20 20c44.112 0 80 35.888 80 80v110c0 44.112-35.888 80-80 80-11.046 0-20 8.954-20 20s8.954 20 20 20c66.168 0 120-53.832 120-120z" fill="#ff5cf3"/></g></svg>