<svg id="Layer_1" enable-background="new 0 0 512 512" height="512" viewBox="0 0 512 512" width="512" xmlns="http://www.w3.org/2000/svg"><g><path d="m85.336 453.77c-17.64-17.64-17.64-46.24 0-63.879l-13.952-13.169-38.169 38.169c-17.64 17.64-17.64 46.24 0 63.879 17.64 17.64 46.24 17.64 63.879 0l12.446-12.446c-8.864-1.533-17.36-5.709-24.204-12.554z" fill="#cee1f2"/><path d="m65.155 512c-17.407 0-33.773-6.779-46.082-19.088-25.41-25.41-25.41-66.754-.001-92.164l112.082-112.081c17.281-18.013 48.381-18.011 65.663 0 7.811 7.811 7.81 20.474-.001 28.285-7.809 7.811-20.474 7.81-28.284-.001-2.735-2.546-6.355-2.549-9.094 0l-112.081 112.082c-9.814 9.813-9.814 25.782 0 35.595 9.368 9.764 26.226 9.764 35.595 0l256.771-256.77c9.814-9.813 9.814-25.782 0-35.595-9.368-9.764-26.226-9.764-35.595 0l-75.012 74.891c-7.816 7.804-20.479 7.795-28.284-.022s-7.794-20.48.022-28.284l75-74.879c24.245-25.27 67.905-25.266 92.152.011 25.41 25.41 25.41 66.754.001 92.164l-256.771 256.77c-12.308 12.307-28.674 19.086-46.081 19.086z" fill="#0023c4"/><path d="m511.985 274c0 11.046-8.954 20-20 20h-20v20c0 11.046-8.954 20-20 20s-20-8.954-20-20v-20h-20c-11.046 0-20-8.954-20-20s8.954-20 20-20h20v-20c0-11.046 8.954-20 20-20s20 8.954 20 20v20h20c11.046 0 20 8.954 20 20zm-276-195h-25v-25c0-11.046-8.954-20-20-20s-20 8.954-20 20v25h-25c-11.046 0-20 8.954-20 20s8.954 20 20 20h25v25c0 11.046 8.954 20 20 20s20-8.954 20-20v-25h25c11.046 0 20-8.954 20-20s-8.954-20-20-20zm181 51c0 11.046 8.954 20 20 20s20-8.954 20-20v-35h35c11.046 0 20-8.954 20-20s-8.954-20-20-20h-35v-35c0-11.046-8.954-20-20-20s-20 8.954-20 20v35h-35c-11.046 0-20 8.954-20 20s8.954 20 20 20h35z" fill="#ff5cf3"/></g></svg>