<svg id="Layer_1" enable-background="new 0 0 512.015 512.015" height="512" viewBox="0 0 512.015 512.015" width="512" xmlns="http://www.w3.org/2000/svg"><g><path d="m124.008 392v-272c0-55.229 44.771-100 100-100h-60c-55.229 0-100 44.771-100 100v272c0 55.228 44.771 100 100 100h25l5.25-4.5c-40.701-12.665-70.25-50.632-70.25-95.5z" fill="#cee1f2"/><path d="m364.831 363.01c-6.3-20.134-23.402-33.093-43.529-33.009-20.156.08-37.153 13.186-43.303 33.389-.136.448-28.486 124.145-28.486 124.145-2.466 10.767 4.263 21.494 15.029 23.96 10.776 2.467 21.495-4.263 23.961-15.03l5.375-23.465h56.052l5.621 23.628c2.513 10.828 13.623 17.405 24.086 14.829 10.745-2.556 17.385-13.34 14.828-24.085 0 0-29.495-123.917-29.634-124.362zm-61.791 69.99 13.396-58.482c1.02-2.911 2.79-4.509 5.025-4.518h.02c2.241 0 3.964 1.533 5.004 4.442l13.929 58.558zm164.968-82v141c-1.056 26.536-38.953 26.516-40 0v-141c1.056-26.536 38.953-26.516 40 0z" fill="#ff5cf4"/><path d="m189.008 512h-25c-66.168 0-120-53.832-120-120v-272c0-66.168 53.832-120 120-120h184c66.168 0 120 53.832 120 120v150c-1.056 26.536-38.953 26.516-40 0v-150c0-44.112-35.888-80-80-80h-184c-44.112 0-80 35.888-80 80v272c0 44.112 35.888 80 80 80h25c26.536 1.056 26.516 38.953 0 40zm198-328c0-11.046-8.954-20-20-20h-34c-16.542 0-30-13.458-30-30v-34c-1.056-26.536-38.953-26.516-40 0v34c0 38.598 31.402 70 70 70h34c11.046 0 20-8.954 20-20z" fill="#0023c4"/></g></svg>