<svg id="Layer_1" enable-background="new 0 0 512.095 512.095" height="512" viewBox="0 0 512.095 512.095" width="512" xmlns="http://www.w3.org/2000/svg"><g><path d="m182.398 316.938c6.529 44.791 4.076 93.715-10.484 145.303-5.119 18.138 12.115 34.544 29.981 28.542 16.291-5.472 35.37-9.931 51.178-13.167-11.143-3.721-18.796-15.726-15.159-28.615 14.56-51.588 14.013-100.512 7.484-145.303-2.023-13.878 3.765-27.723 14.877-36.28l-.625-22.213c-21.957 8.934-43.976 21.283-62.375 35.452-11.111 8.558-16.899 22.403-14.877 36.281z" fill="#cee1f2"/><path d="m506.131 265.891c-7.816-7.804-20.479-7.794-28.284.021l-48.273 48.345-40.445-40.369c-19.528-17.999-46.285 8.838-28.258 28.311l47.13 47.042c-6.945 33.233-21.227 67.003-41.628 98.271-4.201 6.438-11.918 9.649-19.669 8.183-44.391-8.406-93.842-3.129-151.176 16.13-.488.164-1.973.662-3.451-.746-1.478-1.407-1.053-2.911-.914-3.405 14.623-51.811 18.333-103.496 11.027-153.62-.965-6.619 1.828-13.344 7.289-17.549 32.544-25.062 77.52-44.012 109.372-46.083 4.865-.316 9.446-2.398 12.884-5.855l174.446-175.42c17.963-19.561-8.923-46.269-28.362-28.206l-169.353 170.296c-38.554 4.681-87.052 25.59-123.393 53.575-16.906 13.019-25.514 34.097-22.466 55.011 6.491 44.528 3.146 90.617-9.941 136.986-8.141 27.142 13.583 55.649 41.71 55.211 4.643 0 9.33-.747 13.887-2.277 50.667-17.02 93.517-21.844 130.998-14.746 23.728 4.493 47.522-5.566 60.611-25.627 24.509-37.565 40.748-76.945 48.322-117.15l57.958-58.044c7.806-7.817 7.796-20.481-.021-28.285z" fill="#0023c4"/><path d="m288 397.805c-13.807 0-25-11.193-25-25s11.193-25 25-25 25 11.193 25 25-11.193 25-25 25zm-173.609 104.176c5.48-9.59 2.174-21.792-7.417-27.273-.669-.388-66.974-39.586-66.974-106.664 0-93.088 82.322-137.559 154.954-176.794 58.75-31.737 114.241-61.713 114.241-115.011 0-42.014-34.181-76.195-76.195-76.195-109.295 0-220.167 80.451-224.833 83.876-8.901 6.533-10.819 19.038-4.292 27.943s19.041 10.833 27.949 4.312c1.04-.761 105.122-76.131 201.177-76.131 19.958 0 36.195 16.237 36.195 36.195 0 29.442-43.214 52.787-93.252 79.817-38.259 20.667-81.623 44.092-115.441 76.284-40.713 38.754-60.503 83.143-60.503 135.704 0 90.565 83.522 139.333 87.077 141.365 3.135 1.792 6.551 2.643 9.923 2.643 6.946-.002 13.702-3.615 17.391-10.071z" fill="#ff5cf3"/></g></svg>