<svg id="Layer_1" enable-background="new 0 0 512 512" height="512" viewBox="0 0 512 512" width="512" xmlns="http://www.w3.org/2000/svg"><g><path d="m296 143.38-11.731 14.426c-12.805 21.593-43.733 21.593-56.538 0l-70.982-87.287c-13.184-22.234 2.644-50.519 28.269-50.519h80c-25.625 0-41.453 28.285-28.269 50.518zm-59.251 298.102 59.251-72.862-11.731-14.426c-12.805-21.593-43.733-21.593-56.538 0l-70.982 87.287c-13.184 22.234 2.644 50.519 28.269 50.519h80c-25.625 0-41.453-28.285-28.269-50.518z" fill="#cee1f2"/><path d="m256 194c-18.275 0-34.833-9.162-44.614-24.594 0 0-71.338-87.84-71.84-88.687-9.959-16.794-10.133-36.952-.467-53.923 9.558-16.778 26.731-26.796 45.939-26.796h141.965c19.208 0 36.381 10.018 45.938 26.796 9.666 16.971 9.492 37.129-.467 53.923-.501.846-71.84 88.687-71.84 88.687-9.781 15.432-26.339 24.594-44.614 24.594zm-82.61-134.718s71.042 87.476 71.543 88.322c5.126 8.56 16.994 8.576 22.133 0 .501-.846 71.543-88.322 71.543-88.322 4.212-8.653-1.687-19.215-11.627-19.282h-141.964c-9.922.063-15.846 10.61-11.628 19.282zm153.592 452.718h-141.964c-19.208 0-36.381-10.018-45.938-26.796-9.666-16.971-9.492-37.129.467-53.923.501-.846 71.84-88.687 71.84-88.687 19.925-32.611 69.308-32.603 89.228 0 0 0 71.338 87.84 71.84 88.687 9.959 16.794 10.133 36.952.467 53.923-9.559 16.778-26.732 26.796-45.94 26.796zm-153.592-59.282c-4.212 8.653 1.687 19.215 11.627 19.282h141.965c9.922-.063 15.845-10.61 11.627-19.282 0 0-71.042-87.476-71.543-88.322-5.126-8.56-16.994-8.576-22.133 0-.501.846-71.543 88.322-71.543 88.322z" fill="#0023c4"/><path d="m25 231c13.807 0 25 11.193 25 25s-11.193 25-25 25c-13.807 0-25-11.193-25-25s11.193-25 25-25zm52 25c0 13.807 11.193 25 25 25 13.807 0 25-11.193 25-25s-11.193-25-25-25c-13.807 0-25 11.193-25 25zm76 0c0 13.807 11.193 25 25 25 13.807 0 25-11.193 25-25s-11.193-25-25-25c-13.807 0-25 11.193-25 25zm77 0c0 13.807 11.193 25 25 25 13.807 0 25-11.193 25-25s-11.193-25-25-25c-13.807 0-25 11.193-25 25zm77 0c0 13.807 11.193 25 25 25 13.807 0 25-11.193 25-25s-11.193-25-25-25c-13.807 0-25 11.193-25 25zm78 0c0 13.807 11.193 25 25 25 13.807 0 25-11.193 25-25s-11.193-25-25-25c-13.807 0-25 11.193-25 25zm77 0c0 13.807 11.193 25 25 25 13.807 0 25-11.193 25-25s-11.193-25-25-25c-13.807 0-25 11.193-25 25z" fill="#ff5cf3"/></g></svg>