<svg id="Layer_1" enable-background="new 0 0 511.731 511.731" height="512" viewBox="0 0 511.731 511.731" width="512" xmlns="http://www.w3.org/2000/svg"><g><path d="m56.982 344.816c10.882 5.639 20.857 11.419 30.117 17.362 2.543-4.958 5.086-9.915 7.634-14.868-10.555-10.5-14.076-25.279-7.617-41.097 7.094-17.372 12.08-24.516 30.754-24.481-13.753-5.322-15.265-9.275-27.941-12.037-26.908-5.862-47.715 1.239-56.813 23.518-9.098 22.278 1.587 42.505 23.866 51.603z" fill="#cee1f2"/><path d="m444.37 93.731c-6.202 0-12.178.987-17.779 2.812-2.964-35.838-41.192-60.939-75.509-48.831-10.59-59.101-92.345-64.942-111.395-8.275-36.829-14.433-78.27 14.127-77.817 53.794v180.435c-32.526-15.432-43.761-18.302-67.549-23.484l-.135-.029c-17.632-3.842-33.338-3.121-46.682 2.143-15.037 5.932-26.415 17.466-32.904 33.355-13.332 31.506 2.557 64.574 33.913 77.303 43.199 22.497 55.979 39.03 79.069 68.906 3.458 4.475 7.035 9.102 10.968 14.076 16.103 20.365 36.946 37.112 60.277 48.432 23.363 11.335 49.427 17.327 75.374 17.327l87.67.037c46.066 0 89.19-22.674 115.356-60.653 6.267-9.096 3.974-21.55-5.122-27.817-9.096-6.266-21.55-3.973-27.817 5.123-18.7 27.143-49.51 43.347-82.405 43.347l-87.683-.037c-40.857 0-78.863-18.431-104.273-50.568-3.796-4.801-7.304-9.339-10.696-13.728-24.042-31.108-41.413-53.583-93.046-80.34-.536-.277-1.083-.531-1.641-.758-6.372-2.602-11.073-6.513-13.237-11.013-2.01-4.179-1.901-9.062.326-14.514 1.944-4.761 7.105-17.404 34.041-11.538l.135.03c25.714 5.602 32.625 7.107 87.119 34.354 6.199 3.099 13.562 2.769 19.459-.875 5.896-3.645 9.485-10.082 9.485-17.013v-212.5c.964-23.222 34.044-23.204 35 0v133.5c1.056 26.536 38.953 26.516 40 0v-169.5c.964-23.222 34.044-23.204 35 0v169.5c1.056 26.536 38.953 26.516 40 0v-124.5c.964-23.222 34.044-23.204 35 0v124.5c1.056 26.536 38.953 26.516 40 0v-75.5c.964-23.222 34.044-23.204 35 0v75.5c1.056 26.536 38.953 26.516 40 0v-75.5c-.002-31.707-25.796-57.501-57.502-57.501z" fill="#0023c4"/><path d="m481.87 391.731c-11.046 0-20-8.954-20-20v-70c1.056-26.536 38.953-26.516 40 0v70c0 11.045-8.954 20-20 20z" fill="#ff5cf4"/></g></svg>