<svg id="Layer_1" enable-background="new 0 0 512 512" height="512" viewBox="0 0 512 512" width="512" xmlns="http://www.w3.org/2000/svg"><g><path d="m80 412v-232c0-40.104 29.51-73.311 68-79.102-3.915-.589-7.921-.898-12-.898h-36c-44.183 0-80 35.817-80 80v232c0 44.183 35.817 80 80 80h36c4.079 0 8.085-.31 12-.898-38.49-5.791-68-38.998-68-79.102z" fill="#cee1f2"/><path d="m492 40h-472c-26.536-1.056-26.516-38.953 0-40h472c26.536 1.056 26.516 38.953 0 40zm-256 372v-232c0-55.14-44.86-100-100-100h-36c-55.14 0-100 44.86-100 100v232c0 55.14 44.86 100 100 100h36c55.14 0 100-44.86 100-100zm-100-292c33.084 0 60 26.916 60 60v232c0 33.084-26.916 60-60 60h-36c-33.084 0-60-26.916-60-60v-232c0-33.084 26.916-60 60-60z" fill="#0023c4"/><path d="m412 364h-36c-55.14 0-100-44.86-100-100v-84c0-55.14 44.86-100 100-100h36c55.14 0 100 44.86 100 100v84c0 55.14-44.86 100-100 100zm-36-244c-33.084 0-60 26.916-60 60v84c0 33.084 26.916 60 60 60h36c33.084 0 60-26.916 60-60v-84c0-33.084-26.916-60-60-60z" fill="#ff5cf3"/></g></svg>