<svg id="Layer_1" enable-background="new 0 0 512 512" height="512" viewBox="0 0 512 512" width="512" xmlns="http://www.w3.org/2000/svg"><g><path d="m171.13 210.259c0-95.627 70.276-174.84 162-188.811-9.457-1.441-19.141-2.188-29-2.188-105.486 0-191 85.514-191 191s85.514 191 191 191c9.859 0 19.543-.748 29-2.189-91.723-13.972-162-93.184-162-188.812z" fill="#cee1f2"/><path d="m301 421.259c-116.346 0-211-94.654-211-211 11.59-279.92 410.452-279.839 422 .002 0 116.344-94.654 210.998-211 210.998zm0-382c-94.29 0-171 76.71-171 171 9.393 226.855 332.641 226.789 342-.001 0-94.288-76.71-170.999-171-170.999z" fill="#0023c4"/><path d="m389 210.259c0 11.046-8.954 20-20 20h-45v45c0 11.046-8.954 20-20 20s-20-8.954-20-20v-45h-45c-11.046 0-20-8.954-20-20s8.954-20 20-20h45v-45c0-11.046 8.954-20 20-20s20 8.954 20 20v45h45c11.046 0 20 8.954 20 20zm-293.102 177.71-90 89.5c-7.833 7.789-7.868 20.452-.079 28.284 3.909 3.931 9.045 5.897 14.182 5.897 5.1 0 10.201-1.938 14.102-5.818l90-89.5c7.833-7.789 7.868-20.452.079-28.284-7.79-7.833-20.453-7.868-28.284-.079z" fill="#ff5cf3"/></g></svg>