<svg id="Layer_1" enable-background="new 0 0 512 512" height="512" viewBox="0 0 512 512" width="512" xmlns="http://www.w3.org/2000/svg"><g><path d="m180 332h-60c-55.229 0-100-44.772-100-100v-112c0-55.229 44.771-100 100-100h60c-55.229 0-100 44.771-100 100v112c0 55.228 44.771 100 100 100zm-65 120c0-22.091 17.908-40 40-40h-60c-22.091 0-40 17.909-40 40 0 22.091 17.909 40 40 40h60c-22.091 0-40-17.909-40-40z" fill="#cee1f2"/><path d="m392 0h-272c-66.168 0-120 53.832-120 120v112c0 66.168 53.832 120 120 120h272c66.168 0 120-53.832 120-120v-112c0-66.168-53.832-120-120-120zm80 232c0 44.112-35.888 80-80 80h-272c-44.112 0-80-35.888-80-80v-112c0-44.112 35.888-80 80-80h272c44.112 0 80 35.888 80 80zm31.319 203.511-35.246-24.195c-.074-.051-.148-.101-.224-.151-18.801-12.538-40.685-19.165-63.284-19.165h-309.565c-26.075 0-48.318 16.719-56.573 40h-18.427c-26.536 1.056-26.516 38.953 0 40h18.427c8.255 23.281 30.498 40 56.573 40h309.565c22.599 0 44.482-6.627 63.284-19.165.075-.05.149-.1.224-.151l35.246-24.195c11.497-7.669 11.494-25.312 0-32.978zm-57.767 24.115c-12.185 8.095-26.356 12.374-40.987 12.374h-309.565c-26.539-1.102-26.519-38.908 0-40h309.565c14.631 0 28.802 4.279 40.986 12.374l11.11 7.626z" fill="#0023c4"/><path d="m432 132v1c0 11.046-8.954 20-20 20s-20-8.954-20-20v-1c0-6.065-4.935-11-11-11h-1c-11.046 0-20-8.954-20-20s8.954-20 20-20h1c28.121 0 51 22.878 51 51zm-221-51c-28.121 0-51 22.878-51 51v1c0 11.046 8.954 20 20 20s20-8.954 20-20v-1c0-6.065 4.935-11 11-11 11.046 0 20-8.954 20-20s-8.954-20-20-20zm201 118c-11.046 0-20 8.954-20 20v1c0 6.065-4.935 11-11 11h-1c-11.046 0-20 8.954-20 20s8.954 20 20 20h1c28.121 0 51-22.878 51-51v-1c0-11.046-8.954-20-20-20zm-201 32c-6.065 0-11-4.935-11-11v-1c0-11.046-8.954-20-20-20s-20 8.954-20 20v1c0 28.122 22.879 51 51 51 11.046 0 20-8.954 20-20s-8.954-20-20-20zm-106-80c-13.807 0-25 11.193-25 25s11.193 25 25 25 25-11.193 25-25-11.193-25-25-25z" fill="#ff5cf3"/></g></svg>