<svg id="Layer_1" enable-background="new 0 0 512 512" height="512" viewBox="0 0 512 512" width="512" xmlns="http://www.w3.org/2000/svg"><g><path d="m177 40h-60.427c-8.255-23.281-30.498-40-56.573-40-67.649 1.281-82.617 93.41-20 116.573v59.427c1.056 26.536 38.953 26.516 40 0v-59.427c17.022-6.036 30.537-19.55 36.573-36.573h60.427c26.536-1.056 26.516-38.953 0-40zm-117 40c-11.028 0-20-8.972-20-20 1.099-26.533 38.905-26.525 40 0 0 11.028-8.972 20-20 20zm274 0h61.427c6.036 17.023 19.55 30.537 36.573 36.573v59.427c1.056 26.536 38.953 26.516 40 0v-59.427c23.281-8.255 40-30.498 40-56.573-1.281-67.649-93.41-82.617-116.573-20h-61.427c-26.536 1.057-26.516 38.954 0 40zm118-40c11.028 0 20 8.972 20 20-1.099 26.533-38.905 26.525-40 0 0-11.028 8.972-20 20-20zm-275 392h-60.427c-6.036-17.022-19.55-30.537-36.573-36.573v-60.427c-1.056-26.536-38.953-26.516-40 0v60.427c-23.281 8.255-40 30.499-40 56.573 1.281 67.649 93.41 82.617 116.573 20h60.427c26.536-1.056 26.516-38.953 0-40zm-117 40c-11.028 0-20-8.972-20-20 1.099-26.533 38.905-26.525 40 0 0 11.028-8.972 20-20 20zm374-116h-57c-11.028 0-20 8.972-20 20v56c-1.056 26.536-38.953 26.516-40 0v-56c0-33.084 26.916-60 60-60h57c26.536 1.057 26.516 38.954 0 40zm72.143 150.142c-7.811 7.811-20.474 7.811-28.285 0l-86-86c-18.017-19.512 8.795-46.293 28.285-28.284l86 86c7.81 7.811 7.81 20.474 0 28.284z" fill="#0023c4"/><path d="m280 60c0 13.807-11.193 25-25 25s-25-11.193-25-25c0-13.807 11.193-25 25-25s25 11.193 25 25zm-25 367c-13.807 0-25 11.193-25 25 0 13.807 11.193 25 25 25s25-11.193 25-25c0-13.807-11.193-25-25-25zm197-194c-13.807 0-25 11.193-25 25 0 13.807 11.193 25 25 25s25-11.193 25-25c0-13.807-11.193-25-25-25zm-392 0c-13.807 0-25 11.193-25 25 0 13.807 11.193 25 25 25s25-11.193 25-25c0-13.807-11.193-25-25-25z" fill="#ff5cf3"/></g></svg>