<svg id="Layer_1" enable-background="new 0 0 512.007 512.007" height="512" viewBox="0 0 512.007 512.007" width="512" xmlns="http://www.w3.org/2000/svg"><g><path d="m448.004 303c-11.046 0-20-8.954-20-20v-163c0-44.112-35.888-80-80-80h-184c-44.112 0-80 35.888-80 80v156c-1.056 26.536-38.953 26.516-40 0v-156c0-66.168 53.832-120 120-120h184c66.168 0 120 53.832 120 120v163c0 11.046-8.954 20-20 20zm-61-119c0-11.046-8.954-20-20-20h-34c-16.542 0-30-13.458-30-30v-34c-1.056-26.536-38.953-26.516-40 0v34c0 38.598 31.402 70 70 70h34c11.046 0 20-8.954 20-20z" fill="#0023c4"/><path d="m201.126 350v131.486c0 14.593-9.977 26.87-24.262 29.855-2.146.449-4.289.666-6.398.666-11.928 0-22.823-6.945-27.788-18.309-.19-.435-27.674-77.89-27.674-77.89v76.192c-1.056 26.536-38.953 26.516-40 0v-131.486c0-14.593 9.977-26.87 24.262-29.855 14.281-2.987 28.343 4.27 34.187 17.643.19.435 27.674 77.89 27.674 77.89v-76.192c1.055-26.536 38.952-26.516 39.999 0zm-181.122-20c-11.046 0-20 8.954-20 20v142c1.056 26.536 38.953 26.516 40 0v-142c0-11.046-8.954-20-20-20zm315.817 26.826c33.347 33.539 33.352 94.809.001 128.347-16.582 17.3-39.034 26.827-63.219 26.827-20.732 0-37.6-16.885-37.6-37.64v-106.72c0-20.754 16.867-37.64 37.6-37.64 24.184 0 46.636 9.527 63.218 26.826zm-14.817 64.174c-.001-27.509-20.017-49.677-46-50.942v101.885c12.255-.587 23.522-5.665 31.942-14.45 9.065-9.457 14.058-22.701 14.058-36.493zm191 0c.001 24.15-8.714 47.17-24.539 64.023-16.335 17.396-38.66 26.977-62.862 26.977-20.732 0-37.6-16.885-37.6-37.64v-106.72c0-20.754 16.867-37.64 37.6-37.64 49.009 0 87.4 40.22 87.401 91zm-40 0c-.001-27.963-19.182-49.696-45-50.942v101.884c12.103-.587 23.144-5.612 31.301-14.299 8.834-9.409 13.699-22.705 13.699-36.643z" fill="#ff5cf4"/></g></svg>