<svg id="Layer_1" enable-background="new 0 0 512 512" height="512" viewBox="0 0 512 512" width="512" xmlns="http://www.w3.org/2000/svg"><g><path d="m188 301.233c0-44.041 53.427-119.832 92.343-169.115 4.934-6.249 10.99-10.956 17.613-14.141-.49-.623-.979-1.244-1.464-1.859-20.128-25.491-58.86-25.491-78.988 0-38.916 49.283-91.504 125.075-91.504 169.115 0 72.693 57.924 131.634 130.758 131.764-41.002-22.342-68.758-65.805-68.758-115.764z" fill="#cee1f2"/><path d="m256.998 437c-81.754 1.64-152.65-70.12-150.996-151.768-.002-49.736 52.098-126.157 95.805-181.508 13.408-16.983 33.535-26.725 55.191-26.724 21.664 0 41.779 9.741 55.189 26.724 64.241 81.354 96.813 142.423 96.813 181.509 0 83.685-68.188 151.767-152.002 151.767zm0-320c-9.347 0-18.021 4.196-23.798 11.513-54.602 69.148-87.2 127.736-87.2 156.72 6.105 148.774 216.874 147.731 223-.001 0-28.608-32.15-85.73-88.205-156.72-5.777-7.316-14.451-11.512-23.797-11.512zm-216.998 17v-34c0-33.084 26.916-60 60-60h34c26.536-1.056 26.516-38.953 0-40h-34c-55.14 0-100 44.86-100 100v34c0 11.046 8.954 20 20 20s20-8.954 20-20zm114 358c0-11.046-8.954-20-20-20h-34c-33.084 0-60-26.916-60-60v-34c-1.056-26.536-38.953-26.516-40 0v34c0 55.141 44.86 100 100 100h34c11.046 0 20-8.954 20-20zm358-358v-34c0-55.14-44.86-100-100-100h-34c-26.536 1.056-26.516 38.953 0 40h34c33.084 0 60 26.916 60 60v34c0 11.046 8.954 20 20 20s20-8.954 20-20zm0 278v-34c-1.056-26.536-38.953-26.516-40 0v34c0 33.084-26.916 60-60 60h-34c-26.536 1.056-26.516 38.953 0 40h34c55.14 0 100-44.859 100-100z" fill="#0023c4"/><path d="m257 358c-26.523-1.053-26.529-38.946 0-40 17.645 0 32-14.355 32-32 0-11.046 8.954-20 20-20s20 8.954 20 20c0 39.701-32.299 72-72 72z" fill="#ff5cf4"/></g></svg>