<svg id="Layer_1" enable-background="new 0 0 512.012 512.012" height="512" viewBox="0 0 512.012 512.012" width="512" xmlns="http://www.w3.org/2000/svg"><g><path d="m449.037 303c-11.046 0-20-8.954-20-20v-163c0-44.112-35.888-80-80-80h-184c-44.112 0-80 35.888-80 80v156c-1.056 26.536-38.953 26.516-40 0v-156c0-66.168 53.832-120 120-120h184c66.168 0 120 53.832 120 120v163c0 11.046-8.954 20-20 20zm-61-119c0-11.046-8.954-20-20-20h-34c-16.542 0-30-13.458-30-30v-34c-1.056-26.536-38.953-26.516-40 0v34c0 38.598 31.402 70 70 70h34c11.046 0 20-8.954 20-20z" fill="#0023c4"/><path d="m97.217 330c-34.286 0-62.18 27.894-62.18 62.18v99.82c1.056 26.536 38.953 26.516 40 0v-34h21.82c84.833-3.439 85.312-124.419.36-128zm-.359 88h-21.82v-25.82c0-12.229 9.95-22.18 22.18-22.18 31.931 1.405 31.374 46.775-.36 48zm289.779-88c-20.732 0-37.6 16.885-37.6 37.64v106.72c0 20.755 16.867 37.64 37.6 37.64 24.156 0 46.863-9.426 63.939-26.541 56.566-56.453 16.193-155.522-63.939-155.459zm35.622 127.207c-8.949 8.97-20.669 14.15-33.222 14.737v-101.887c26.681 1.26 48 23.872 48 50.943 0 13.515-5.248 26.655-14.778 36.207zm-104.222-.707c.64 30.1-27.331 56.166-57.244 55.5-13.294 0-36.463-2.975-58.01-11.362-10.294-4.006-15.391-15.599-11.384-25.892 4.006-10.294 15.6-15.392 25.892-11.384 17.52 6.818 35.588 8.638 43.502 8.638 9.186 0 17.244-7.243 17.244-15.5 0-8.402-9.833-15.5-21.473-15.5-36.799 0-64.549-23.859-64.549-55.5 0-30.603 25.162-55.5 56.09-55.5 16.599 0 33.767 3.594 54.028 11.31 10.323 3.931 15.504 15.485 11.574 25.808-3.931 10.323-15.485 15.507-25.808 11.573-20.457-7.789-32.508-8.69-39.794-8.69-8.872 0-16.09 6.953-16.09 15.5 0 8.837 10.554 15.5 24.549 15.5 33.897-.001 61.473 24.896 61.473 55.499z" fill="#ff5cf4"/></g></svg>