<svg id="Layer_1" enable-background="new 0 0 512 512" height="512" viewBox="0 0 512 512" width="512" xmlns="http://www.w3.org/2000/svg"><g><path d="m177 40h-60.427c-8.255-23.281-30.498-40-56.573-40-67.649 1.281-82.617 93.41-20 116.573v59.427c1.056 26.536 38.953 26.516 40 0v-59.427c17.022-6.036 30.537-19.55 36.573-36.573h60.427c26.536-1.056 26.516-38.953 0-40zm-117 40c-11.028 0-20-8.972-20-20 1.099-26.533 38.905-26.525 40 0 0 11.028-8.972 20-20 20zm274 0h61.427c6.036 17.022 19.55 30.537 36.573 36.573v59.427c1.056 26.536 38.953 26.516 40 0v-59.427c23.281-8.255 40-30.498 40-56.573-1.281-67.649-93.41-82.617-116.573-20h-61.427c-26.536 1.056-26.516 38.953 0 40zm118-40c11.028 0 20 8.972 20 20-1.099 26.533-38.905 26.525-40 0 0-11.028 8.972-20 20-20zm20 355.427v-61.427c-1.056-26.536-38.953-26.516-40 0v61.427c-17.022 6.036-30.537 19.55-36.573 36.573h-59.427c-26.536 1.056-26.516 38.953 0 40h59.427c8.255 23.281 30.498 40 56.573 40 67.649-1.281 82.617-93.41 20-116.573zm-20 76.573c-11.028 0-20-8.972-20-20 1.099-26.533 38.906-26.525 40 0 0 11.028-8.972 20-20 20zm-275-40h-60.427c-6.036-17.022-19.55-30.537-36.573-36.573v-60.427c-1.056-26.536-38.953-26.516-40 0v60.427c-23.281 8.255-40 30.498-40 56.573 1.281 67.649 93.41 82.617 116.573 20h60.427c26.536-1.056 26.516-38.953 0-40zm-117 40c-11.028 0-20-8.972-20-20 1.099-26.533 38.906-26.525 40 0 0 11.028-8.972 20-20 20z" fill="#0023c4"/><path d="m85 258c0 13.807-11.193 25-25 25s-25-11.193-25-25c0-13.807 11.193-25 25-25s25 11.193 25 25zm170-173c13.807 0 25-11.193 25-25 0-13.807-11.193-25-25-25s-25 11.193-25 25c0 13.807 11.193 25 25 25zm69 155h-45v-45c0-11.046-8.954-20-20-20s-20 8.954-20 20v45h-45c-11.046 0-20 8.954-20 20s8.954 20 20 20h45v45c0 11.046 8.954 20 20 20s20-8.954 20-20v-45h45c11.046 0 20-8.954 20-20s-8.954-20-20-20zm128-7c-13.807 0-25 11.193-25 25 0 13.807 11.193 25 25 25s25-11.193 25-25c0-13.807-11.193-25-25-25zm-197 194c-13.807 0-25 11.193-25 25 0 13.807 11.193 25 25 25s25-11.193 25-25c0-13.807-11.193-25-25-25z" fill="#ff5cf3"/></g></svg>