<svg id="Layer_1" enable-background="new 0 0 511.794 511.794" height="512" viewBox="0 0 511.794 511.794" width="512" xmlns="http://www.w3.org/2000/svg"><g><path d="m86.574 300.829c-24.641 24.641-41.435 56.025-48.265 90.196l-18.309 100.768 63.215-11.463 25.093-131.305c6.83-34.171 23.625-65.556 48.265-90.196l-13.285-14.474z" fill="#cee1f2"/><path d="m20 511.793c-5.278 0-10.401-2.092-14.189-5.905-4.646-4.679-6.688-11.346-5.459-17.823l17.391-91.651c.012-.063.024-.128.037-.191 8.769-43.872 30.139-83.787 61.794-115.406l182.369-180.247c7.856-7.764 20.52-7.69 28.284.166 7.765 7.856 7.69 20.519-.166 28.284l-182.325 180.2c-25.963 25.978-43.498 58.736-50.714 94.746l-11.937 62.91 63.341-11.576c36.047-7.236 68.835-24.815 94.816-50.831l150.292-148.381c10.256-10.213 10.357-27.029.165-37.425l-36.013-36.902c-7.715-7.905-7.561-20.567.345-28.282 7.905-7.716 20.567-7.562 28.282.345l35.981 36.869c25.482 25.992 25.229 68.085-.597 93.8l-150.3 148.389c-31.603 31.587-71.468 52.915-115.286 61.674-.108.021-.216.042-.324.062l-92.192 16.85c-1.196.217-2.4.325-3.595.325zm139.142-110.858c7.811-7.811 7.811-20.475 0-28.285l-20-20c-19.512-18.017-46.293 8.795-28.284 28.285l20 20c3.905 3.905 9.023 5.857 14.142 5.857s10.237-1.951 14.142-5.857z" fill="#0023c4"/><path d="m447.993 209.793c-4.72 0-9.458-1.66-13.266-5.039-8.263-7.331-9.019-19.972-1.688-28.234 0 0 18.926-21.314 19.208-21.595 26.162-25.105 26.164-70.274-.001-95.378-24.952-26.005-69.807-26.19-94.969-.404l-12.295 13.901c-7.319 8.274-19.958 9.047-28.231 1.73-8.273-7.318-9.048-19.958-1.73-28.231 0 0 13.277-14.992 13.565-15.28 39.991-41.681 111.956-41.68 151.946 0 41.511 39.83 41.708 111.444.441 151.503l-18.011 20.301c-3.952 4.453-9.449 6.726-14.969 6.726z" fill="#ff5cf4"/></g></svg>