<svg id="Layer_1" enable-background="new 0 0 513 513" height="512" viewBox="0 0 513 513" width="512" xmlns="http://www.w3.org/2000/svg"><g><path d="m446.067 297c-11.046 0-20-8.954-20-20v-157c0-44.112-35.888-80-80-80h-184c-44.112 0-80 35.888-80 80v157c-1.056 26.536-38.953 26.516-40 0v-157c0-66.168 53.832-120 120-120h184c66.168 0 120 53.832 120 120v157c0 11.046-8.954 20-20 20zm-61-113c0-11.046-8.954-20-20-20h-34c-16.542 0-30-13.458-30-30v-34c-1.056-26.536-38.953-26.516-40 0v34c0 38.598 31.402 70 70 70h34c11.046 0 20-8.954 20-20z" fill="#0023c4"/><path d="m161.45 462.733c-20.45 74.175-129.907 60.749-131.383-17.291v-48.885c0-36.7 29.857-66.558 66.557-66.558 31.423 0 58.108 20.789 64.894 50.555 2.455 10.77-4.285 21.49-15.054 23.945-10.773 2.451-21.491-4.286-23.945-15.055-7.631-29.453-52.064-23.937-52.451 7.112v48.885c.412 30.932 44.379 36.438 52.52 7.824 2.614-10.732 13.433-17.314 24.165-14.698 10.731 2.616 17.311 13.435 14.697 24.166zm162.617-40.733c0 24.181-9.397 47.355-26.461 64.459-17.076 17.115-39.783 26.541-63.939 26.541-20.733 0-37.6-16.885-37.6-37.64v-106.72c0-20.755 16.867-37.64 37.6-37.64 49.846 0 90.399 41.066 90.4 91zm-40 0c0-27.071-21.319-49.684-48-50.943v101.888c26.523-.761 48.496-24.481 48-50.945zm191.692 60.672c5.152 9.771 1.408 21.868-8.363 27.02-9.573 5.103-21.844 1.503-27.02-8.363l-22.846-43.329h-20.463v34c-1.056 26.536-38.953 26.516-40 0v-99.82c0-34.286 27.894-62.18 62.18-62.18 62.341.469 86.875 79.965 37.119 115.892zm-32.692-88.852c-.886-30.085-44.34-32.528-46-1.641v25.821h21.82c13.333 0 24.18-10.847 24.18-24.18z" fill="#ff5cf4"/></g></svg>