<svg id="Layer_1" enable-background="new 0 0 512 512" height="512" viewBox="0 0 512 512" width="512" xmlns="http://www.w3.org/2000/svg"><g><path d="m160 136v-36c0-44.183 35.817-80 80-80h-60c-44.183 0-80 35.817-80 80v36c0 44.183 35.817 80 80 80h60c-44.183 0-80-35.817-80-80z" fill="#cee1f2"/><path d="m20 512c-11.046 0-20-8.954-20-20v-472c1.056-26.536 38.953-26.516 40 0v472c0 11.046-8.954 20-20 20zm492-376v-36c0-55.14-44.859-100-100-100h-232c-55.141 0-100 44.86-100 100v36c0 55.14 44.859 100 100 100h232c55.141 0 100-44.86 100-100zm-100-96c33.084 0 60 26.916 60 60v36c0 33.084-26.916 60-60 60h-232c-33.084 0-60-26.916-60-60v-36c0-33.084 26.916-60 60-60z" fill="#0023c4"/><path d="m264 512h-84c-55.141 0-100-44.859-100-100v-36c0-55.141 44.859-100 100-100h84c55.141 0 100 44.859 100 100v36c0 55.141-44.859 100-100 100zm-84-196c-33.084 0-60 26.916-60 60v36c0 33.084 26.916 60 60 60h84c33.084 0 60-26.916 60-60v-36c0-33.084-26.916-60-60-60z" fill="#ff5cf3"/></g></svg>