<svg id="Layer_1" enable-background="new 0 0 512 512" height="512" viewBox="0 0 512 512" width="512" xmlns="http://www.w3.org/2000/svg"><g><path d="m355.52 307.155 18.876 85.508c4.824 24.134 16.685 46.3 34.088 63.704l35.408 35.408c-15.123 1.374-30.722-3.722-42.299-15.299l-61.109-61.109c-17.403-17.403-29.264-39.569-34.088-63.704l-11.325-56.663s59.192 11.863 60.449 12.155zm-234.718 165.481c-24.697-18.194-40.731-47.515-40.731-80.595v-272.083c0-34.397 17.334-64.735 43.722-82.719.023-.187-4.722-17.24-4.722-17.24-55.229 0-100 44.771-100 100v272c0 55.229 44.771 100 100 100 0 .001 1.663-12.914 1.731-19.363z" fill="#cee1f2"/><path d="m414.071 262c-11.046 0-20-8.954-20-20v-122c0-44.112-35.888-80-80-80h-94c-26.536-1.056-26.516-38.953 0-40h94c66.168 0 120 53.832 120 120v122c0 11.046-8.954 20-20 20zm76.619 228.619c28.32-27.173 28.318-76.066 0-103.238l-61.109-61.109c-20.264-20.263-45.827-33.941-73.926-39.558l-56.664-11.326c-6.554-1.311-13.334.742-18.062 5.47-4.728 4.729-6.78 11.506-5.47 18.062l11.326 56.664c5.616 28.099 19.295 53.662 39.558 73.926l61.109 61.108c13.788 13.788 32.12 21.382 51.619 21.382s37.831-7.593 51.619-21.381zm-142.875-164.681c20.328 4.062 38.821 13.958 53.48 28.618l61.11 61.109c12.801 12.283 12.801 34.386-.001 46.668-12.283 12.803-34.386 12.802-46.668 0l-61.109-61.109c-14.66-14.659-24.556-33.152-28.618-53.48l-5.447-27.253zm-23.744 166.062c0-11.046-8.954-20-20-20h-84c-26.536 1.056-26.516 38.953 0 40h84c11.046 0 20-8.954 20-20zm-164 0v-472c0-11.046-8.954-20-20-20h-20c-66.168 0-120 53.832-120 120v272c0 66.168 53.832 120 120 120h20c11.046 0 20-8.954 20-20zm-40-20c-44.112 0-80-35.888-80-80v-272c0-44.112 35.888-80 80-80z" fill="#0023c4"/><path d="m227.461 307.002c-6.365 0-12.623-3.032-16.501-8.675-9.445-13.745-12.917-30.335-9.777-46.714 3.129-16.32 12.434-30.406 26.209-39.686l76.848-53.333c.039-.027.077-.053.116-.08 9.104-6.224 11.446-18.694 5.222-27.798-3.015-4.41-7.566-7.382-12.816-8.368-5.254-.987-10.571.13-14.98 3.146-.187.127-50.988 32.39-50.988 32.39-9.323 5.92-21.683 3.162-27.604-6.163s-3.162-21.684 6.163-27.605l50.162-31.853c13.169-8.888 29-12.165 44.634-9.228 15.751 2.959 29.406 11.875 38.452 25.105 18.657 27.29 11.655 64.662-15.603 83.349 0 0-77.107 53.513-77.2 53.575-4.904 3.283-8.218 8.283-9.328 14.079-1.111 5.796.117 11.666 3.459 16.529 6.256 9.104 3.947 21.555-5.156 27.811-3.464 2.378-7.408 3.519-11.312 3.519z" fill="#ff5cf3"/></g></svg>