<svg id="Layer_1" enable-background="new 0 0 512 512" height="512" viewBox="0 0 512 512" width="512" xmlns="http://www.w3.org/2000/svg"><g><path d="m177 40h-60.427c-8.255-23.281-30.498-40-56.573-40-67.649 1.281-82.617 93.41-20 116.573v59.427c1.056 26.536 38.953 26.516 40 0v-59.427c17.022-6.036 30.537-19.55 36.573-36.573h60.427c26.536-1.056 26.516-38.953 0-40zm-117 40c-11.028 0-20-8.972-20-20 1.099-26.533 38.905-26.525 40 0 0 11.028-8.972 20-20 20zm274 0h61.427c6.036 17.022 19.55 30.537 36.573 36.573v59.427c1.056 26.536 38.953 26.516 40 0v-59.427c23.281-8.255 40-30.498 40-56.573-1.281-67.649-93.41-82.617-116.573-20h-61.427c-26.536 1.056-26.516 38.953 0 40zm118-40c11.028 0 20 8.972 20 20-1.099 26.533-38.905 26.525-40 0 0-11.028 8.972-20 20-20zm20 355.427v-61.427c-1.056-26.536-38.953-26.516-40 0v61.427c-17.022 6.036-30.537 19.55-36.573 36.573h-59.427c-26.536 1.056-26.516 38.953 0 40h59.427c8.255 23.281 30.498 40 56.573 40 67.649-1.281 82.617-93.41 20-116.573zm-20 76.573c-11.028 0-20-8.972-20-20 1.098-26.533 38.906-26.525 40 0 0 11.028-8.972 20-20 20zm-275-40h-60.427c-6.036-17.022-19.55-30.537-36.573-36.573v-60.427c-1.056-26.536-38.953-26.516-40 0v60.427c-23.281 8.255-40 30.498-40 56.573 1.281 67.649 93.41 82.617 116.573 20h60.427c26.536-1.056 26.516-38.953 0-40zm-117 40c-11.028 0-20-8.972-20-20 1.098-26.533 38.906-26.525 40 0 0 11.028-8.972 20-20 20z" fill="#0023c4"/><path d="m230 60c0-13.807 11.192-25 25-25s25 11.193 25 25c0 13.807-11.192 25-25 25s-25-11.193-25-25zm25 367c-13.808 0-25 11.193-25 25 0 13.807 11.192 25 25 25s25-11.193 25-25c0-13.807-11.192-25-25-25zm197-194c-13.808 0-25 11.193-25 25 0 13.807 11.192 25 25 25s25-11.193 25-25c0-13.807-11.192-25-25-25zm-392 0c-13.808 0-25 11.193-25 25 0 13.807 11.192 25 25 25s25-11.193 25-25c0-13.807-11.192-25-25-25zm285.92 91.518c3.58 10.449-1.988 21.822-12.438 25.402-2.147.736-4.334 1.086-6.484 1.086-8.311 0-16.074-5.222-18.918-13.523l-9.106-26.579-86.232.096-8.767 26.32c-3.491 10.48-14.82 16.148-25.295 12.654-10.479-3.49-16.146-14.815-12.654-25.295l42.628-127.976c6.789-20.383 25.052-33.612 46.527-33.704h.225c21.378 0 39.649 13.052 46.588 33.305zm-60.617-53.518-21.149-61.73c-1.865-5.444-6.264-6.27-8.754-6.27h-.048c-2.481.011-6.918.849-8.749 6.345l-20.538 61.655z" fill="#ff5cf3"/></g></svg>