<svg id="Layer_1" enable-background="new 0 0 511.853 511.853" height="512" viewBox="0 0 511.853 511.853" width="512" xmlns="http://www.w3.org/2000/svg"><g><path d="m474.728 37.128c-23.038-23.038-60.389-23.038-83.426 0l-125.764 127.414c-8.588 8.798-6.92 23.279 3.468 29.855 5.139 3.253 14.907 10.359 20 15.452l6.852 8.253c2.642-1.092 5.371-2.039 8.095-2.97.243-.083 2.089-.893 2.771-1.211 1.266-6.121 4.248-11.984 9.056-16.846l128.501-129.947c11.115-11.115 25.563-16.851 40.128-17.24-2.576-4.568-5.792-8.871-9.681-12.76z" fill="#cee1f2"/><path d="m333.005 282.85c-5.105 0-10.21-1.942-14.113-5.829-7.827-7.795-7.852-20.458-.058-28.284l141.723-142.297c15.16-14.544 15.164-40.633.029-55.17-14.496-15.109-40.573-15.13-55.094-.048l-125.085 126.727c5.723 3.694 16.329 11.346 22.741 17.759 7.811 7.811 7.81 20.475-.001 28.284-7.812 7.811-20.475 7.808-28.285-.001-3.455-3.456-11.589-9.552-16.554-12.694-20.933-12.737-24.503-43.507-7.083-60.725.025-.026.051-.053.077-.079l125.766-127.415c.03-.03.061-.062.091-.092 29.403-30.645 82.308-30.644 111.71 0 30.645 29.402 30.643 82.308 0 111.71l-141.692 142.267c-3.908 3.924-9.04 5.887-14.172 5.887z" fill="#0023c4"/><path d="m71.059 511.85c-25.612 0-50.305-13.838-62.909-35.253-10.472-17.793-10.87-38.099-1.091-55.709 13.95-25.122 21.86-48.234 29.51-70.585 12.526-36.6 24.358-71.17 59.486-100.333 25.148-20.877 56.885-30.671 89.363-27.566 32.518 3.104 61.875 18.753 82.662 44.063 18.008 21.927 27.926 49.794 27.926 78.469 0 27.802-8.921 53.726-26.517 77.051-14.667 19.444-35.071 36.663-60.646 51.179-50.305 28.553-105.664 38.684-137.784 38.684zm102.66-250.005c-19.006 0-37.264 6.574-52.114 18.902-26.475 21.979-35.617 48.69-47.191 82.508-7.833 22.886-16.71 48.824-32.385 77.052-1.059 1.908-4.284 7.715.594 16.002 5.385 9.15 17.079 15.541 28.436 15.541 29.402 0 77.304-10.35 118.04-33.472 30.523-17.324 66.907-47.599 66.907-93.442 0-19.722-6.514-38.077-18.837-53.082-13.98-17.023-33.709-27.547-55.552-29.632-2.641-.252-5.278-.377-7.898-.377z" fill="#fd5cf1"/></g></svg>