<svg id="Layer_1" enable-background="new 0 0 511.976 511.976" height="512" viewBox="0 0 511.976 511.976" width="512" xmlns="http://www.w3.org/2000/svg"><g><path d="m128.749 420.522c-23.506-12.183-39.261-36.562-39.261-63.17v-205.262c0-26.659 15.812-51.076 39.386-63.235l-.151-22.218-60.832 31.375c-23.575 12.159-38.403 36.575-38.403 63.235v186.949c0 26.609 14.772 50.987 38.278 63.17l61.042 31.798z" fill="#cee1f2"/><path d="m396.457 169.186c4.85 9.924.735 21.9-9.188 26.75l-88 43c-9.706 4.806-21.884.836-26.75-9.189-4.85-9.924-.735-21.9 9.188-26.75l88-43c9.926-4.851 21.902-.735 26.75 9.189zm-169.969 116.781v126c1.056 26.536 38.953 26.516 40 0v-126c-1.056-26.536-38.953-26.516-40 0zm22.201 226.002c-.067-.001-.134-.002-.201-.003-.554.011.062.007.201.003zm-130.339-351.932c-9.902-4.895-21.897-.835-26.792 9.068-4.894 9.901-.834 21.896 9.068 26.791l87 43c9.687 4.851 21.879.934 26.792-9.068 4.894-9.901.834-21.896-9.068-26.791zm365.138 20.595v86.335c-1.056 26.536-38.953 26.516-40 0v-86.335c0-30.954-17.126-58.884-44.696-72.891l-115.985-58.927c-23.38-11.879-51.236-11.758-74.515.323l-114.738 59.552c-27.181 14.107-44.066 41.914-44.066 72.567v148.774c0 30.653 16.885 58.459 44.066 72.567l115.981 60.197c19.67 9.472 38.971 11.443 60.498 6.674 10.766-2.463 21.492 4.274 23.953 15.042 2.46 10.769-4.274 21.492-15.042 23.952-11.015 2.517-21.529 3.626-30.455 3.503-19.442.001-40.107-4.704-57.379-13.669l-115.982-60.195c-40.488-21.014-65.64-62.424-65.64-108.069v-148.775c0-45.646 25.152-87.056 65.64-108.07l114.738-59.552c34.694-18.008 76.211-18.188 111.06-.482l115.984 58.927c41.066 20.863 66.578 62.458 66.578 108.552zm-234.98 331.334c.009 0 .006 0 0 0zm-.008 0c-.005 0-.009 0-.011 0 .005.001.008 0 .011 0z" fill="#0023c4"/><path d="m327.488 451.967c-11.046 0-20-8.954-20-20v-56c0-33.084 26.916-60 60-60h57c26.536 1.056 26.516 38.953 0 40h-57c-11.028 0-20 8.972-20 20v56c0 11.046-8.954 20-20 20zm169.142 54.142c7.811-7.811 7.811-20.475 0-28.285l-86-86c-19.512-18.017-46.293 8.795-28.284 28.285l86 86c3.905 3.905 9.023 5.857 14.142 5.857s10.237-1.951 14.142-5.857z" fill="#ff5cf4"/></g></svg>