<svg id="Layer_1" enable-background="new 0 0 512.297 512.297" height="512" viewBox="0 0 512.297 512.297" width="512" xmlns="http://www.w3.org/2000/svg"><g><path d="m209.025 470.297c-75.297-39.527-126.783-121.427-126.783-212.016 0-118.679 88.348-220.055 202.86-235.838-10.083-1.406-20.365-2.145-30.81-2.145-129.244 0-234.017 108.739-234.017 237.983 0 111.845 78.47 205.346 183.354 228.498 1.803-5.964 3.643-10.501 5.396-16.482z" fill="#cee1f2"/><path d="m199.292 505.798c-1.552 0-3.126-.182-4.702-.562-54.474-13.125-103.824-44.606-138.96-88.646-17.565-22.015-31.247-46.574-40.666-72.995-73.109-207.238 135.215-411.628 339.187-321.887 30.248 13.521 57.48 32.735 80.94 57.105 17.642 19.849-9.674 46.118-28.817 27.74-133.772-140.99-366.367-40.541-365.998 151.73-.001 99.284 67.309 184.845 163.684 208.067 10.738 2.587 17.346 13.39 14.758 24.128-2.207 9.164-10.399 15.32-19.426 15.32zm312.983-382.501v-57c-1.056-26.536-38.953-26.516-40 0v57c0 11.028-8.972 20-20 20h-57c-26.536 1.056-26.516 38.953 0 40h57c33.084 0 60-26.916 60-60z" fill="#0023c4"/><path d="m487.275 233.297c13.807 0 25 11.193 25 25s-11.193 25-25 25c-13.807 0-25-11.193-25-25s11.193-25 25-25zm-40 106c0 13.807 11.193 25 25 25 13.807 0 25-11.193 25-25s-11.193-25-25-25c-13.807 0-25 11.193-25 25zm-43 73c0 13.807 11.193 25 25 25 13.807 0 25-11.193 25-25s-11.193-25-25-25c-13.807 0-25 11.193-25 25zm-66 51c0 13.807 11.193 25 25 25 13.807 0 25-11.193 25-25s-11.193-25-25-25c-13.807 0-25 11.193-25 25zm-83 24c0 13.807 11.193 25 25 25 13.807 0 25-11.193 25-25s-11.193-25-25-25c-13.807 0-25 11.193-25 25z" fill="#ff5cf3"/></g></svg>