<svg id="Layer_1" enable-background="new 0 0 512 512" height="512" viewBox="0 0 512 512" width="512" xmlns="http://www.w3.org/2000/svg"><g><path d="m80 412v-80c0-44.183 35.817-80 80-80h-60c-44.183 0-80 35.817-80 80v80c0 44.183 35.817 80 80 80h60c-44.183 0-80-35.817-80-80z" fill="#cee1f2"/><path d="m512 120v272c0 66.168-53.832 120-120 120h-70c-26.536-1.056-26.516-38.953 0-40h70c44.112 0 80-35.888 80-80v-272c0-44.112-35.888-80-80-80h-272c-44.112 0-80 35.888-80 80v73c-1.056 26.536-38.953 26.516-40 0v-73c0-66.168 53.832-120 120-120h272c66.168 0 120 53.832 120 120zm-232 212v80c0 55.141-44.859 100-100 100h-80c-55.141 0-100-44.859-100-100v-80c0-55.141 44.859-100 100-100h80c55.141 0 100 44.859 100 100zm-40 0c0-33.084-26.916-60-60-60h-80c-33.084 0-60 26.916-60 60v80c0 33.084 26.916 60 60 60h80c33.084 0 60-26.916 60-60zm157 80v-109c-1.056-26.536-38.953-26.516-40 0v109c1.056 26.536 38.953 26.516 40 0zm-190-259c26.536-1.056 26.516-38.953 0-40h-107c-26.536 1.056-26.516 38.953 0 40z" fill="#0023c4"/><path d="m397 173v50c0 11.046-8.954 20-20 20s-20-8.954-20-20v-41.715l-52.857 52.857c-3.906 3.906-9.025 5.858-14.143 5.858s-10.237-1.952-14.143-5.857c-7.811-7.811-7.811-20.475 0-28.285l52.858-52.858h-41.715c-11.046 0-20-8.954-20-20s8.954-20 20-20h50c33.084 0 60 26.916 60 60z" fill="#ff5cf3"/></g></svg>