<svg id="Layer_1" enable-background="new 0 0 512 512" height="512" viewBox="0 0 512 512" width="512" xmlns="http://www.w3.org/2000/svg"><g><path d="m450.002 297c-11.046 0-20-8.954-20-20v-157c0-44.112-35.888-80-80-80h-184c-44.112 0-80 35.888-80 80v157c-1.056 26.536-38.953 26.516-40 0v-157c0-66.168 53.832-120 120-120h184c66.168 0 120 53.832 120 120v157c0 11.046-8.954 20-20 20zm-61-113c0-11.046-8.954-20-20-20h-34c-16.542 0-30-13.458-30-30v-34c-1.056-26.536-38.953-26.516-40 0v34c0 38.598 31.402 70 70 70h34c11.046 0 20-8.954 20-20z" fill="#0023c4"/><path d="m256.182 330c-34.286 0-62.18 27.894-62.18 62.18v99.82c0 11.046 8.954 20 20 20s20-8.954 20-20v-34h21.82c35.389 0 64.18-28.791 64.18-64.18 0-35.19-28.63-63.82-63.82-63.82zm-.359 88h-21.82v-25.82c0-12.229 9.95-22.18 22.18-22.18 13.135 0 23.82 10.686 23.82 23.82-.001 13.333-10.847 24.18-24.18 24.18zm-100.87-68v95.442c0 36.7-29.857 66.558-66.558 66.558-31.103 0-57.76-20.259-64.825-49.267-2.614-10.732 3.967-21.551 14.698-24.165 10.733-2.618 21.552 3.967 24.165 14.698 2.73 11.206 13.164 18.734 25.963 18.734 14.644 0 26.558-11.914 26.558-26.558v-95.442c0-11.046 8.954-20 20-20s19.999 8.954 19.999 20zm334.049 95.5c0 36.668-29.832 66.5-66.5 66.5s-66.5-29.832-66.5-66.5v-50c0-36.668 29.832-66.5 66.5-66.5 20.635 0 40.52 9.569 53.189 25.597 6.851 8.665 5.379 21.243-3.286 28.093-8.667 6.85-21.244 5.378-28.093-3.286-4.996-6.32-13.557-10.403-21.811-10.403-14.612 0-26.5 11.888-26.5 26.5v50c0 14.612 11.888 26.5 26.5 26.5 13.426 0 24.552-10.036 26.27-23h-12.77c-11.046 0-20-8.954-20-20s8.954-20 20-20h16.5c20.127-.001 36.501 16.373 36.501 36.499z" fill="#ff5cf3"/></g></svg>