<svg id="Layer_1" enable-background="new 0 0 512 512" height="512" viewBox="0 0 512 512" width="512" xmlns="http://www.w3.org/2000/svg"><g><path d="m296.275 392.758-125.59-125.511c-19.572-19.558-19.581-51.279-.02-70.848l-12.499-11.546-41.501 41.546c-19.561 19.569-19.552 51.29.02 70.848l125.591 125.511c39.032 39.004 102.292 38.987 141.302-.039l2.582-2.583c-31.529 6.16-65.453-2.964-89.885-27.378z" fill="#cee1f2"/><path d="m476.825 187.961-.08-.08-48.688-48.107c-7.858-7.765-20.521-7.688-28.284.17-7.764 7.856-7.688 20.52.169 28.283l48.646 48.065c15.092 15.103 23.407 35.177 23.412 56.53.006 21.371-8.312 41.465-23.421 56.579l-79.146 79.179c-31.153 31.164-81.853 31.178-113.02.031l-125.592-125.511c-11.68-11.197-11.683-31.356-.012-42.561l149.66-149.72c11.731-11.736 30.822-11.74 42.56-.01l6.801 6.794-79.997 80.279c-7.797 7.824-7.774 20.487.05 28.284 7.823 7.796 20.487 7.775 28.284-.05l159.692-160.255c3.775-3.779 8.797-5.86 14.138-5.861h.004c5.341 0 10.361 2.08 14.137 5.856 7.796 7.795 7.796 20.478 0 28.272l-.19.193-16.28 16.729c-7.703 7.916-7.531 20.578.384 28.282 7.918 7.703 20.579 7.53 28.282-.384l16.198-16.645c23.284-23.4 23.246-61.378-.108-84.733-11.333-11.331-26.398-17.57-42.423-17.57h-.011c-16.029.003-31.097 6.249-42.445 17.607l-51.48 51.662-6.762-6.755c-27.335-27.32-71.801-27.307-99.122.025l-149.66 149.72c-27.19 26.098-27.177 73.052.026 99.134l125.592 125.512c46.764 46.739 122.84 46.709 169.583-.046l79.146-79.179c22.664-22.672 35.141-52.812 35.132-84.869-.008-32.055-12.5-62.19-35.175-84.85z" fill="#0023c4"/><path d="m411 292h-207c-11.046 0-20-8.954-20-20s8.954-20 20-20h207c11.046 0 20 8.954 20 20s-8.954 20-20 20zm-270.726 149.764c0-6.634 0-26.821-39.406-76.85-7.465-9.477-18.665-14.914-30.729-14.914-.001 0-.001 0-.002 0-12.064 0-23.266 5.436-30.731 14.914-39.406 50.03-39.406 70.216-39.406 76.85 0 38.728 31.463 70.236 70.137 70.236s70.137-31.508 70.137-70.236zm-40 0c0 16.672-13.52 30.236-30.138 30.236-16.616 0-30.136-13.564-30.136-30.236 0-4.439 6.321-20.822 30.137-51.219 23.816 30.395 30.137 46.779 30.137 51.219z" fill="#ff5cf3"/></g></svg>