<svg id="Layer_1" enable-background="new 0 0 511.895 511.895" height="512" viewBox="0 0 511.895 511.895" width="512" xmlns="http://www.w3.org/2000/svg"><g><path d="m189.895 391.936s0-157.624 0-198.083 38.284-39.959 38.284-39.959v-19h-100l-.203 254.716c-.045 56.477 45.726 102.284 102.203 102.284h48.716c-55.072.001-89-44.752-89-99.958z" fill="#cee1f2"/><path d="m391.895 511.895h-162c-66.168 0-120-53.832-120-120v-258c0-11.046 8.954-20 20-20h262c66.168 0 120 53.832 120 120v158c0 66.167-53.833 120-120 120zm-242-358v238c0 44.112 35.888 80 80 80h162c44.112 0 80-35.888 80-80v-158c0-44.112-35.888-80-80-80zm282 144c0-11.046-8.954-20-20-20h-34c-16.542 0-30-13.458-30-30v-34c-1.056-26.536-38.953-26.516-40 0v34c0 38.598 31.402 70 70 70h34c11.045 0 20-8.955 20-20z" fill="#0023c4"/><path d="m126.895 79.895c-11.046 0-20-8.954-20-20v-40c1.056-26.536 38.953-26.516 40 0v40c0 11.045-8.955 20-20 20zm-47 50c0-11.046-8.954-20-20-20h-40c-26.536 1.056-26.516 38.953 0 40h40c11.045 0 20-8.955 20-20z" fill="#ff5cf4"/></g></svg>