<svg id="Layer_1" enable-background="new 0 0 512.008 512.008" height="512" viewBox="0 0 512.008 512.008" width="512" xmlns="http://www.w3.org/2000/svg"><g><path d="m448.504 290c-11.046 0-20-8.954-20-20v-150c0-44.112-35.888-80-80-80h-184c-44.112 0-80 35.888-80 80v150c-1.056 26.536-38.953 26.516-40 0v-150c0-66.168 53.832-120 120-120h184c66.168 0 120 53.832 120 120v150c0 11.046-8.954 20-20 20zm-61-106c0-11.046-8.954-20-20-20h-34c-16.542 0-30-13.458-30-30v-34c-1.056-26.536-38.953-26.516-40 0v34c0 38.598 31.402 70 70 70h34c11.046 0 20-8.954 20-20z" fill="#0023c4"/><path d="m44.504 512c-11.046 0-20-8.954-20-20v-99.82c0-34.286 27.894-62.18 62.18-62.18 85.001 3.604 84.423 124.587-.359 128h-21.82v34c-.001 11.046-8.955 20-20.001 20zm20-94h21.82c31.749-1.234 32.277-46.601.359-48-12.23 0-22.18 9.95-22.18 22.18v25.82zm225.34 94.008c-11.927 0-22.824-6.946-27.789-18.31l-38.551-87.881v86.183c-1.056 26.536-38.953 26.516-40 0v-131.486c0-14.594 9.977-26.871 24.263-29.855 14.291-2.983 28.343 4.271 34.186 17.644l38.551 87.881v-86.184c1.056-26.536 38.953-26.516 40 0v131.486c0 14.594-9.977 26.871-24.263 29.855-2.147.449-4.288.667-6.397.667zm197.66-66.508c0-20.126-16.374-36.5-36.5-36.5h-16.5c-26.536 1.056-26.516 38.953 0 40h12.77c-5.279 32.421-51.737 29.535-52.77-3.5v-50c.318-25.905 32.419-35.598 48.31-16.098 6.849 8.666 19.427 10.136 28.092 3.288 8.666-6.851 10.137-19.428 3.288-28.093-12.67-16.028-32.554-25.597-53.19-25.597-36.668 0-66.5 29.832-66.5 66.5v50c0 36.668 29.832 66.5 66.5 66.5s66.5-29.832 66.5-66.5z" fill="#ff5cf4"/></g></svg>