<svg id="Layer_1" enable-background="new 0 0 512 512" height="512" viewBox="0 0 512 512" width="512" xmlns="http://www.w3.org/2000/svg"><g><path d="m233.639 336.592c-10.832-5.582-17.639-16.75-17.639-28.941v-103.648c0-12.214 6.833-23.4 17.697-28.97l43.272-22.187-6.481-3.302c-9.302-4.739-20.312-4.725-29.602.039l-67.188 34.45c-10.865 5.571-17.698 16.757-17.698 28.97v85.648c0 12.19 6.807 23.359 17.639 28.941l67.188 34.795c9.321 4.803 20.384 4.817 29.718.039l6.511-3.35z" fill="#cee1f2"/><path d="m40 116.573v59.427c1.056 26.536 38.953 26.516 40 0v-59.427c17.023-6.036 30.537-19.55 36.573-36.573h60.427c26.536-1.056 26.516-38.953 0-40h-60.427c-8.255-23.281-30.498-40-56.573-40-67.649 1.281-82.617 93.41-20 116.573zm20-76.573c11.028 0 20 8.972 20 20-1.099 26.533-38.906 26.525-40 0 0-11.028 8.972-20 20-20zm274 40h61.427c6.036 17.022 19.55 30.537 36.573 36.573v59.427c1.056 26.536 38.953 26.516 40 0v-59.427c23.281-8.255 40-30.498 40-56.573-1.281-67.649-93.41-82.617-116.573-20h-61.427c-26.536 1.056-26.516 38.953 0 40zm118-40c11.028 0 20 8.972 20 20-1.099 26.533-38.906 26.525-40 0 0-11.028 8.972-20 20-20zm20 355.427v-61.427c-1.056-26.536-38.953-26.516-40 0v61.427c-17.022 6.036-30.537 19.55-36.573 36.573h-59.427c-26.536 1.056-26.516 38.953 0 40h59.427c8.255 23.281 30.498 40 56.573 40 67.649-1.281 82.617-93.41 20-116.573zm-20 76.573c-11.028 0-20-8.972-20-20 1.099-26.533 38.906-26.525 40 0 0 11.028-8.972 20-20 20zm-275-40h-60.427c-6.036-17.022-19.55-30.537-36.573-36.573v-60.427c-1.056-26.536-38.953-26.516-40 0v60.427c-23.281 8.255-40 30.498-40 56.573 1.281 67.649 93.41 82.617 116.573 20h60.427c26.536-1.056 26.516-38.953 0-40zm-117 40c-11.028 0-20-8.972-20-20 1.099-26.533 38.906-26.525 40 0 0 11.028-8.972 20-20 20zm316-173.407v-85.53c0-19.868-10.995-37.812-28.694-46.83l-67.739-34.509c-14.977-7.63-32.849-7.606-47.807.062l-67.188 34.45c-17.624 9.036-28.572 26.957-28.572 46.768v85.647c0 19.767 10.912 37.668 28.442 46.7l67.225 34.814c15.03 7.746 32.972 7.752 48.029.045l67.702-34.836c17.643-9.03 28.602-26.956 28.602-46.781zm-40 0c0 4.737-2.617 9.021-6.866 11.195l-67.703 34.836c-3.585 1.836-7.863 1.83-11.407.004l-67.224-34.815c-4.194-2.161-6.8-6.438-6.8-11.162v-85.647c0-4.734 2.614-9.016 6.823-11.174l67.188-34.45c3.566-1.83 7.827-1.834 11.397-.016l67.739 34.509c4.227 2.153 6.853 6.441 6.853 11.189z" fill="#0023c4"/><path d="m297.66 233.611c5.185 9.753 1.482 21.863-8.271 27.048l-13.555 7.206v15.135c0 11.046-8.954 20-20 20s-20-8.954-20-20v-14.309l-15.166-8.001c-9.77-5.154-13.511-17.253-8.356-27.022 5.155-9.768 17.252-13.51 27.021-8.356l15.727 8.298 15.552-8.268c9.753-5.188 21.863-1.484 27.048 8.269zm-42.66-148.611c13.807 0 25-11.193 25-25 0-13.807-11.193-25-25-25s-25 11.193-25 25c0 13.807 11.193 25 25 25zm0 342c-13.807 0-25 11.193-25 25 0 13.807 11.193 25 25 25s25-11.193 25-25c0-13.807-11.193-25-25-25zm197-194c-13.807 0-25 11.193-25 25 0 13.807 11.193 25 25 25s25-11.193 25-25c0-13.807-11.193-25-25-25zm-392 0c-13.807 0-25 11.193-25 25 0 13.807 11.193 25 25 25s25-11.193 25-25c0-13.807-11.193-25-25-25z" fill="#ff5cf3"/></g></svg>