<svg id="Layer_1" enable-background="new 0 0 512 512" height="512" viewBox="0 0 512 512" width="512" xmlns="http://www.w3.org/2000/svg"><g><path d="m434 350.942c-5.128 0-10.254-1.959-14.161-5.877-7.8-7.82-7.783-20.484.038-28.284l46.289-46.166c7.711-7.378 7.73-20.605.046-28.005l-46.226-45.398c-18.191-19.348 8.376-46.371 28.028-28.539 0 0 46.36 45.531 46.396 45.566 11.343 11.309 17.59 26.35 17.59 42.351s-6.248 31.041-17.591 42.35l-46.286 46.163c-3.903 3.892-9.014 5.839-14.123 5.839zm-341.839-5.877c7.8-7.82 7.783-20.484-.038-28.284l-46.292-46.169c-7.707-7.375-7.726-20.605-.043-28.002l46.226-45.398c7.88-7.74 7.995-20.402.255-28.283-7.74-7.882-20.402-7.994-28.283-.256 0 0-46.36 45.531-46.396 45.566-11.343 11.309-17.59 26.35-17.59 42.351s6.248 31.041 17.588 42.347l46.289 46.166c3.903 3.894 9.013 5.839 14.123 5.839 5.127 0 10.254-1.96 14.161-5.877zm105.108-253.11 45.399-46.226c7.399-7.685 20.628-7.663 28.005.046l46.166 46.289c7.8 7.821 20.464 7.836 28.285.038 7.821-7.801 7.837-20.464.038-28.284l-46.164-46.287c-22.286-23.298-62.415-23.297-84.7 0-.035.036-.071.071-.105.107l-45.461 46.289c-7.74 7.881-7.625 20.543.255 28.283 3.895 3.824 8.955 5.73 14.013 5.73 5.177.002 10.354-1.998 14.269-5.985zm100.726 402.399 46.166-46.289c17.99-19.534-8.854-46.281-28.322-28.246l-46.169 46.291c-7.374 7.708-20.606 7.727-28.002.044l-45.399-46.226c-7.74-7.882-20.402-7.994-28.283-.256-7.88 7.74-7.995 20.402-.255 28.283l45.461 46.289c.035.036.07.071.105.107 11.309 11.343 26.349 17.59 42.35 17.59s31.042-6.246 42.348-17.587zm-21.995-321.412v-73c-1.056-26.536-38.953-26.516-40 0v73c0 11.046 8.954 20 20 20s20-8.954 20-20zm0 243v-73c-1.056-26.536-38.953-26.516-40 0v73c0 11.046 8.954 20 20 20s20-8.954 20-20zm-85-158c0-11.046-8.954-20-20-20h-73c-26.536 1.056-26.516 38.953 0 40h73c11.046 0 20-8.954 20-20zm243 0c0-11.046-8.954-20-20-20h-73c-26.536 1.056-26.516 38.953 0 40h73c11.046 0 20-8.954 20-20z" fill="#0023c4"/><path d="m256 232.942c13.807 0 25 11.193 25 25 0 13.807-11.193 25-25 25s-25-11.193-25-25c0-13.807 11.193-25 25-25z" fill="#ff5cf3"/></g></svg>