<svg id="Layer_1" enable-background="new 0 0 512 512" height="512" viewBox="0 0 512 512" width="512" xmlns="http://www.w3.org/2000/svg"><g><path d="m353.745 146.778 64.148-64.885c19.038-19.038 46.563-24.453 70.431-16.207-3.286-9.56-8.772-18.535-16.491-26.143-26.646-26.26-69.487-26.104-95.94.35l-94.93 96.02 64.722 64.722s2.871 2.668 4.397 3.838c-13.174-17.19-11.976-41.876 3.663-57.695z" fill="#cee1f2"/><path d="m511.999 87.247c-.111-23.452-9.39-45.452-26.126-61.947-34.346-33.848-90.025-33.643-124.144.475l-80.185 80.436-18.402-18.402c-19.512-18.017-46.295 8.795-28.285 28.285l160 160c7.811 7.81 20.474 7.81 28.285 0 7.811-7.811 7.811-20.475 0-28.285l-17.278-17.278 80.342-80.592c16.745-16.817 25.904-39.082 25.793-62.692zm-54.129 34.46-80.29 80.54-67.752-67.752 80.208-80.458c18.614-18.614 49.012-18.725 67.759-.246 9.1 8.968 14.145 20.917 14.204 33.646.061 12.887-4.96 25.061-14.129 34.27zm-122.728 149.101c7.81 7.811 7.81 20.475 0 28.285l-57 57c-7.811 7.81-20.474 7.81-28.285 0-7.81-7.811-7.81-20.475 0-28.285l57-57c7.811-7.809 20.475-7.809 28.285 0zm-92-64.715-106 106c-7.811 7.81-20.474 7.81-28.285 0-7.81-7.811-7.81-20.475 0-28.285l106-106c7.811-7.811 20.475-7.811 28.285 0s7.81 20.475 0 28.285z" fill="#0023c4"/><path d="m99 500.951c.149 0-.15.001 0 0zm112.594-77.583-51.929 51.888c-16.065 16.358-37.732 25.577-60.665 25.695-16.535 0-32.596-4.809-46.189-13.526l-18.668 18.668c-3.905 3.905-9.024 5.857-14.143 5.857s-10.237-1.952-14.143-5.857c-7.81-7.811-7.81-20.475 0-28.285l19.219-19.219c-14.266-24.314-15.78-54.576-2.855-80.587 8.598-17.303 25.99-28.052 45.393-28.052h113.586c17.458 0 33.054 10.423 39.731 26.553 6.676 16.13 3.011 34.526-9.337 46.865zm-27.623-31.565c-.767-1.853-2.172-1.853-2.772-1.853h-113.586c-4.048 0-7.805 2.297-9.57 5.851-8.554 17.216-5.086 37.998 8.63 51.713 8.575 8.576 20.208 13.437 32.327 13.437 12.208-.062 23.628-5.047 32.171-13.768.05-.052.1-.103.15-.152l51.999-51.958c.425-.425 1.418-1.417.651-3.27z" fill="#ff5cf3"/></g></svg>