<svg id="Layer_1" enable-background="new 0 0 512 512" height="512" viewBox="0 0 512 512" width="512" xmlns="http://www.w3.org/2000/svg"><g><path d="m279.707 318.872c-15.458-23.182-23.707-50.42-23.707-78.283v-160.796c0-22.205 12.071-41.577 30-51.953-8.827-5.108-19.067-8.047-30-8.047-33.137 0-60 26.863-60 60v170.848c0 27.862 8.249 55.101 23.707 78.282l36.293 52.87 33.45-48.728z" fill="#cee1f2"/><path d="m336 79.794c-4.407-106.157-155.633-106.075-160 0v170.849c0 31.916 9.359 62.823 27.067 89.378.05.075.1.149.151.224l36.292 52.869c7.669 11.497 25.311 11.494 32.979 0l36.292-52.869c.052-.074.102-.148.151-.224 17.709-26.556 27.068-57.463 27.068-89.379zm-40 170.848c0 23.949-7.01 47.142-20.275 67.079l-19.725 28.734-19.725-28.733c-13.265-19.938-20.275-43.131-20.275-67.08v-170.848c2.204-53.078 77.816-53.037 80 0zm216 236.152c0 11.046-8.954 20-20 20h-151c-26.536-1.056-26.516-38.953 0-40h151c11.046 0 20 8.954 20 20zm-321 0c0 11.046-8.954 20-20 20h-151c-26.536-1.056-26.516-38.953 0-40h151c11.046 0 20 8.954 20 20zm3.767-56.085c-3.806 10.466-15.59 15.652-25.682 11.852-96.215-34.31-163.378-131.369-162.152-233.768-.001-11.045 8.953-19.999 19.999-19.999s20 8.954 20 20c0 87.403 54.647 166.264 135.983 196.233 10.364 3.819 15.671 15.317 11.852 25.682zm140.235 13.09c-8.14 0-15.79-5.007-18.769-13.091-3.819-10.364 1.487-21.862 11.852-25.682 83.09-30.614 138.915-109.475 138.915-196.232 0-11.046 8.954-20 20-20s20 8.954 20 20c0 103.439-66.343 197.383-165.085 233.767-2.28.839-4.616 1.238-6.913 1.238z" fill="#0023c4"/><path d="m231 486.794c0-13.807 11.193-25 25-25s25 11.193 25 25-11.193 25-25 25-25-11.193-25-25zm-206-328c13.807 0 25-11.193 25-25s-11.193-25-25-25-25 11.193-25 25 11.193 25 25 25zm462 0c13.807 0 25-11.193 25-25s-11.193-25-25-25-25 11.193-25 25 11.193 25 25 25z" fill="#ff5cf4"/></g></svg>