<svg id="Layer_1" enable-background="new 0 0 512 512" height="512" viewBox="0 0 512 512" width="512" xmlns="http://www.w3.org/2000/svg"><g><path d="m80 250v-130c0-55.229 44.771-100 100-100h-60c-55.229 0-100 44.771-100 100v130c0 55.229 44.771 100 100 100h60c-55.229 0-100-44.771-100-100z" fill="#cee1f2"/><path d="m392 512h-130c-66.168 0-120-53.832-120-120v-22h-22c-66.168 0-120-53.832-120-120v-130c0-66.168 53.832-120 120-120h130c66.168 0 120 53.832 120 120v22h22c66.168 0 120 53.832 120 120v130c0 66.168-53.832 120-120 120zm-272-472c-44.112 0-80 35.888-80 80v130c0 44.112 35.888 80 80 80h42c11.046 0 20 8.954 20 20v42c0 44.112 35.888 80 80 80h130c44.112 0 80-35.888 80-80v-130c0-44.112-35.888-80-80-80h-42c-11.046 0-20-8.954-20-20v-42c0-44.112-35.888-80-80-80z" fill="#0023c4"/><path d="m191.125 165.875c13.807 0 25 11.193 25 25 0 13.807-11.193 25-25 25s-25-11.193-25-25c0-13.807 11.193-25 25-25zm-53.125 104.125c0 13.807 11.193 25 25 25s25-11.193 25-25c0-13.807-11.193-25-25-25s-25 11.193-25 25zm158 50c0 13.807 11.193 25 25 25s25-11.193 25-25c0-13.807-11.193-25-25-25s-25 11.193-25 25zm-79 30c0 13.807 11.193 25 25 25s25-11.193 25-25c0-13.807-11.193-25-25-25s-25 11.193-25 25zm108-108c0 13.807 11.193 25 25 25s25-11.193 25-25c0-13.807-11.193-25-25-25s-25 11.193-25 25zm-80-80c0 13.807 11.193 25 25 25s25-11.193 25-25c0-13.807-11.193-25-25-25s-25 11.193-25 25z" fill="#ff5cf3"/></g></svg>