<svg id="Layer_1" enable-background="new 0 0 512 512" height="512" viewBox="0 0 512 512" width="512" xmlns="http://www.w3.org/2000/svg"><g><path d="m472 395.294v-33.427c-1.056-26.536-38.953-26.516-40 0v33.427c-17.022 6.036-30.537 19.55-36.573 36.573h-33.427c-26.536 1.056-26.516 38.953 0 40h33.427c8.255 23.281 30.498 40 56.573 40 67.649-1.282 82.617-93.41 20-116.573zm-20 76.573c-11.028 0-20-8.972-20-20 1.098-26.533 38.906-26.525 40 0 0 11.028-8.972 20-20 20zm-173-303h-33.792c-24.023-61.677-114.998-46.028-116.208 21.001 0 26.074 16.719 48.317 40 56.572v32.427c1.056 26.536 38.953 26.516 40 0v-32.427c17.354-6.154 31.062-20.08 36.917-37.573h33.083c26.536-1.057 26.516-38.954 0-40zm-90 41c-11.028 0-20-8.972-20-20 1.098-26.533 38.906-26.525 40 0 0 11.028-8.972 20-20 20zm173-41c-26.536 1.056-26.516 38.953 0 40h33.083c5.854 17.492 19.562 31.419 36.917 37.573v32.427c1.056 26.536 38.953 26.516 40 0v-32.427c23.281-8.255 40-30.498 40-56.573-1.215-67.054-92.212-82.654-116.208-21zm90 1c11.028 0 20 8.972 20 20-1.098 26.533-38.906 26.525-40 0 0-11.029 8.972-20 20-20zm-173 262h-32.427c-6.154-17.354-20.08-31.062-37.573-36.917v-33.083c-1.056-26.536-38.953-26.516-40 0v33.792c-61.677 24.023-46.028 114.998 21.001 116.208 26.074 0 48.317-16.719 56.572-40h32.427c26.536-1.057 26.516-38.954 0-40zm-89 40c-11.028 0-20-8.972-20-20 1.098-26.533 38.906-26.525 40 0 0 11.028-8.972 20-20 20zm193-412c-1.224-67.068-92.215-82.644-116.208-21h-33.792c-26.536 1.056-26.516 38.953 0 40h33.083c22.339 63.598 115.578 49.207 116.917-19zm-60 20c-11.028 0-20-8.972-20-20 1.098-26.533 38.906-26.525 40 0 0 11.028-8.972 20-20 20zm-243 185.083v-33.083c-1.056-26.536-38.953-26.516-40 0v33.792c-61.668 24.013-46.037 114.998 21.001 116.208 68.235-1.348 82.573-94.601 18.999-116.917zm-19 76.917c-11.028 0-20-8.972-20-20 1.098-26.533 38.906-26.525 40 0 0 11.028-8.972 20-20 20zm-21-225.428v32.427c1.056 26.536 38.953 26.516 40 0v-32.427c17.354-6.154 31.062-20.08 36.917-37.573h33.083c26.536-1.056 26.516-38.953 0-40h-33.792c-24.023-61.676-114.998-46.027-116.208 21.002 0 26.073 16.719 48.317 40 56.571zm20-76.572c11.028 0 20 8.972 20 20-1.098 26.533-38.906 26.525-40 0 0-11.029 8.972-20 20-20z" fill="#0023c4"/><path d="m320 295.867c-13.807 0-25 11.193-25 25 0 13.807 11.193 25 25 25s25-11.193 25-25c0-13.807-11.193-25-25-25z" fill="#ff5cf3"/></g></svg>