<svg id="Layer_1" enable-background="new 0 0 512 512" height="512" viewBox="0 0 512 512" width="512" xmlns="http://www.w3.org/2000/svg"><g><path d="m414.195 314.269-9.544 11.031-50.456-41.031c-21.593-12.805-21.593-43.733 0-56.538l87.287-70.982c22.233-13.184 50.518 2.644 50.518 28.269v9.442l-77.805 63.271c-21.593 12.805-21.593 43.733 0 56.538zm-334.195 12.713v-141.964c0-6.289 1.711-11.983 4.611-16.808l-14.093-11.461c-22.233-13.184-50.518 2.644-50.518 28.269v141.964c0 25.625 28.285 41.453 50.518 28.269l14.093-11.461c-2.9-4.825-4.611-10.519-4.611-16.808z" fill="#cee1f2"/><path d="m458.63 380.049c-9.412 0-18.814-2.534-27.349-7.595-.846-.502-88.688-71.841-88.688-71.841-32.61-19.923-32.602-69.309 0-89.227 0 0 87.842-71.339 88.688-71.841 16.796-9.957 36.953-10.131 53.923-.467 16.778 9.559 26.796 26.733 26.796 45.94v141.965c0 19.207-10.018 36.381-26.796 45.938-8.347 4.754-17.465 7.128-26.574 7.128zm-5.911-41.439c5.729 2.827 10.729.668 12.688-.447 1.982-1.129 6.594-4.479 6.594-11.181v-141.964c0-6.701-4.611-10.052-6.594-11.181-1.957-1.115-6.96-3.273-12.688-.447 0 0-87.478 71.043-88.323 71.545-8.56 5.125-8.575 16.993 0 22.131.845.501 88.323 71.544 88.323 71.544zm-399.349 41.439c-9.11 0-18.227-2.374-26.574-7.128-16.778-9.558-26.796-26.732-26.796-45.939v-141.964c0-19.207 10.018-36.381 26.796-45.938 16.971-9.666 37.129-9.491 53.923.467.846.502 88.688 71.841 88.688 71.841 32.61 19.923 32.602 69.309 0 89.227 0 0-87.842 71.339-88.688 71.841-8.533 5.058-17.939 7.593-27.349 7.593zm17.148-24.798h.01zm-17.083-183.258c-3.115 0-5.594 1.134-6.841 1.844-1.983 1.129-6.594 4.479-6.594 11.181v141.965c0 6.701 4.611 10.052 6.594 11.181 1.958 1.116 6.961 3.274 12.688.447 0 0 87.478-71.043 88.323-71.545 8.56-5.125 8.575-16.993 0-22.131-.846-.502-88.323-71.545-88.323-71.545-2.083-1.028-4.069-1.397-5.847-1.397z" fill="#0023c4"/><path d="m281 25c0 13.807-11.193 25-25 25s-25-11.193-25-25c0-13.807 11.193-25 25-25s25 11.193 25 25zm-25 52c-13.807 0-25 11.193-25 25 0 13.807 11.193 25 25 25s25-11.193 25-25c0-13.807-11.193-25-25-25zm0 76c-13.807 0-25 11.193-25 25 0 13.807 11.193 25 25 25s25-11.193 25-25c0-13.807-11.193-25-25-25zm0 77c-13.807 0-25 11.193-25 25 0 13.807 11.193 25 25 25s25-11.193 25-25c0-13.807-11.193-25-25-25zm0 77c-13.807 0-25 11.193-25 25 0 13.807 11.193 25 25 25s25-11.193 25-25c0-13.807-11.193-25-25-25zm0 78c-13.807 0-25 11.193-25 25 0 13.807 11.193 25 25 25s25-11.193 25-25c0-13.807-11.193-25-25-25zm0 77c-13.807 0-25 11.193-25 25 0 13.807 11.193 25 25 25s25-11.193 25-25c0-13.807-11.193-25-25-25z" fill="#ff5cf3"/></g></svg>